<svg width="284" height="263" viewBox="0 0 284 263" fill="none" xmlns="http://www.w3.org/2000/svg">
<path d="M107.802 249.256C92.6549 254.623 77.3612 257.103 61.0481 254.003C42.8654 250.547 27.0944 234.987 18.1832 219.469C14.8722 213.705 12.2363 207.265 12.5807 200.628C13.3822 185.296 27.8665 183.583 40.1614 186.063C47.0921 187.457 53.4559 190.632 59.7475 193.776C70.193 198.999 82.4458 201.568 91.8105 208.808C94.9529 211.245 97.3128 214.172 100.964 215.945C106.644 218.704 113.128 220.007 118.962 222.518C123.943 224.673 129.511 228.218 129.518 233.643C129.519 239.207 123.714 242.752 118.614 244.967C115.004 246.545 111.41 247.984 107.802 249.256Z" fill="url(#paint0_linear)"/>
<path d="M52.0501 51.4939C76.8631 14.9268 128.172 0.244448 169.761 13.9929C189.816 20.6259 206.623 34.4377 222.125 48.7756C235.789 61.4126 249.045 75.0426 258.377 91.2881C264.749 102.377 269.309 115.669 272.529 128.079C277.344 146.66 272.971 170.601 248.952 168.847C243.317 168.436 238.442 166.409 233.171 164.636C228.908 163.199 224.73 164.061 220.304 163.359C209.162 161.595 198.429 157.493 188.28 152.689C167.596 142.888 148.697 129.573 127.425 120.985C109.993 113.956 91.3767 110.327 72.5808 110.294C64.6512 110.281 56.3135 110.836 49.2203 107.29C31.7374 98.5432 39.5993 74.9568 46.1286 61.6886C47.8584 58.1544 49.8372 54.7475 52.0501 51.4939V51.4939Z" fill="url(#paint1_linear)"/>
<path d="M246.597 57.0133C250.682 60.7132 266.732 70.8136 267.041 58.9607C267.114 56.0079 265.775 53.1408 263.952 50.9783C261.867 48.4962 259.502 47.1942 257.874 44.3025C255.881 40.8109 253.613 37.5294 251.099 34.5003C245.959 28.1957 239.958 22.3704 232.676 19.775C227.569 17.9567 218.922 18.414 216.496 24.9595C212.962 34.4878 228.074 36.2337 232.683 39.7062C237.057 42.993 239.534 48.6406 242.999 53.129C244.094 54.5443 245.298 55.8446 246.597 57.0133V57.0133Z" fill="url(#paint2_linear)"/>
<path d="M171.059 45.4235C179.712 50.5178 186.202 58.1431 194.091 64.2843C207.225 74.5072 225.228 76.5986 240.29 83.7079C255.648 90.9615 267.245 102.234 272.488 118.482C279.262 139.453 279.906 164.393 274.151 185.953C267.813 209.685 252.929 225.449 231.168 235.963C209.419 246.469 185.326 251.373 161.296 252.384C158.977 252.484 156.662 252.537 154.338 252.552C102.135 252.855 32.6502 234.481 14.8773 178.402C14.7144 177.889 14.5583 177.377 14.4017 176.857C12.5704 170.61 11.4936 164.165 11.1944 157.661C10.0765 134.605 14.1118 109.156 22.1954 87.5411C27.6323 72.9893 39.3397 60.6852 51.6763 51.9182C69.009 39.6017 90.1575 36.4585 111.206 34.9807C126.793 33.8871 144.323 33.4875 159.063 39.4495C163.205 41.1383 167.215 43.1352 171.059 45.4235Z" fill="url(#paint3_linear)"/>
<path d="M73.3902 80.7598C73.3902 80.7598 126.466 151.627 139.743 157.487C153.024 163.35 169.672 162.03 171.128 168.828C172.584 175.63 143.255 164.125 147.934 174.617C152.612 185.113 170.846 197.092 170.932 207.659C171.021 218.229 141.917 184.972 141.917 184.972C141.917 184.972 169.339 215.399 160.259 216.118C151.175 216.838 127.688 187.09 127.688 187.09C127.688 187.09 153.961 226.113 145.252 222.549C136.546 218.985 55.8046 125.617 43.3535 115.737C30.9025 105.861 73.3902 80.7598 73.3902 80.7598Z" fill="#E27B5A"/>
<path d="M227.787 97.9622C227.787 97.9622 167.251 162.554 153.407 166.919C139.563 171.281 123.163 168.139 120.966 174.733C118.773 181.331 149.187 173.128 143.382 183.045C137.581 192.958 118.143 202.857 116.894 213.353C115.65 223.845 148.228 193.997 148.228 193.997C148.228 193.997 117.628 221.219 126.574 222.932C135.525 224.65 162.138 197.668 162.138 197.668C162.138 197.668 131.735 233.565 140.781 230.98C149.828 228.395 240.338 144.485 253.797 136.036C267.259 127.588 227.787 97.9622 227.787 97.9622Z" fill="#FFCEB0"/>
<path d="M176.25 142.812C176.25 142.812 194.869 178.068 211.985 181.82C229.099 185.571 266.071 152.104 274.138 135.527C282.208 118.953 242.877 68.7965 234.46 61.5825C222.301 60.0981 167.618 111.385 176.25 142.812Z" fill="#FB4C47"/>
<path d="M60.721 46.5533C60.721 46.5533 121.959 106.906 119.057 122.577C116.159 138.251 92.7756 157.025 73.917 163.174C55.0585 169.32 13.8298 144.563 13.8298 126.509C10.8234 95.8495 26.4547 63.9874 60.721 46.5533Z" fill="#128E5A"/>
<defs>
<linearGradient id="paint0_linear" x1="11.2362" y1="202.745" x2="26.9514" y2="257.311" gradientUnits="userSpaceOnUse">
<stop stop-color="#FFD0D0"/>
<stop offset="1" stop-color="#FFF8F8"/>
</linearGradient>
<linearGradient id="paint1_linear" x1="304.772" y1="56.8204" x2="128.881" y2="16.2048" gradientUnits="userSpaceOnUse">
<stop stop-color="#FFF8F8"/>
<stop offset="1" stop-color="#FFD0D0"/>
</linearGradient>
<linearGradient id="paint2_linear" x1="267.458" y1="58.7529" x2="207.112" y2="32.9781" gradientUnits="userSpaceOnUse">
<stop stop-color="#FFD0D0"/>
<stop offset="1" stop-color="#FFF7F7"/>
</linearGradient>
<linearGradient id="paint3_linear" x1="253.838" y1="228.724" x2="11.2439" y2="88.2388" gradientUnits="userSpaceOnUse">
<stop stop-color="#FFCFCF"/>
<stop offset="1" stop-color="#FFF8F8"/>
</linearGradient>
</defs>
</svg>
