<svg width="146" height="298" viewBox="0 0 146 298" fill="none" xmlns="http://www.w3.org/2000/svg">
<g filter="url(#filter0_d)">
<path d="M131.935 139.428C127.488 139.295 123.656 142.784 122.568 147.579C115.684 148.125 107.819 148.311 99.1848 147.755C94.3828 147.437 89.8174 146.924 85.5477 146.289C85.5713 145.45 85.5831 144.603 85.5831 143.755C85.5831 139.632 85.2875 135.578 84.7434 131.613C86.9197 129.908 89.64 128.115 92.9399 126.579C98.6526 123.895 103.999 122.942 108.126 122.667C110.149 127.374 114.797 130.112 119.244 128.919C124.259 127.578 127.133 121.775 125.643 115.956C124.165 110.136 118.913 106.498 113.898 107.84C109.333 109.067 106.542 113.995 107.204 119.267C103.597 121.369 98.2268 123.647 91.5797 123.815C88.3035 123.903 85.4294 123.453 83.0993 122.871C81.6209 116.715 79.5038 110.816 76.7953 105.253C79.6576 102.604 83.0402 99.7951 87.0024 97.0837C92.7388 93.1458 98.2741 90.3288 103.135 88.3059C106.305 92.1041 111.355 93.3669 115.258 91.0538C119.741 88.403 120.995 82.0184 118.073 76.8079C115.152 71.5988 109.132 69.532 104.649 72.1901C100.758 74.4947 99.2912 79.6165 100.9 84.3327C96.7247 87.6525 91.5915 91.1581 85.4294 94.2848C81.2424 96.4219 77.2329 98.0466 73.6019 99.2828C70.6332 94.1877 67.1678 89.4363 63.2647 85.1002C64.7668 79.5194 67.2978 73.0024 71.6149 66.4673C75.6717 60.3571 80.1661 55.8971 83.9864 52.7618C88.197 55.4381 93.4958 55.0229 96.5118 51.4991C99.9418 47.5078 99.1611 41.0527 94.7495 37.0797C90.3615 33.0969 84.0219 33.1041 80.6038 37.0966C77.5878 40.6204 77.8243 46.0518 80.9586 50.0151C78.4867 54.2019 74.7491 59.3942 69.2611 64.3399C63.2054 69.7968 57.1261 73.0644 52.4897 75.0072C47.2146 70.8653 41.4665 67.35 35.328 64.5694C36.2151 62.034 37.3978 59.4828 38.9472 56.9753C40.1891 54.9876 41.5256 53.2391 42.874 51.7116C47.5458 53.6629 52.7855 52.2592 55.1391 48.1707C57.7885 43.6051 55.8487 37.4051 50.8102 34.333C45.7717 31.2597 39.5504 32.469 36.9011 37.0432C34.5829 41.0624 35.8011 46.342 39.5505 49.6448C38.7699 51.7649 37.8236 53.964 36.6882 56.2055C35.399 58.7846 34.0033 61.161 32.5249 63.3588C31.898 63.1026 31.283 62.856 30.6561 62.6266C23.3467 59.818 15.5523 58.0439 7.42683 57.4428C6.09032 53.7514 4.93123 49.6606 4.11512 45.1678C2.45927 36.0001 2.76686 28.0212 3.53565 22.0288C8.31396 21.089 11.8858 17.2398 11.8858 12.6268C11.8858 7.31077 7.14304 3.00128 1.28842 3.00128C-4.57804 3.00128 -9.3328 7.31077 -9.3328 12.6268C-9.3328 17.3187 -5.63076 21.2214 -0.734164 22.0738C0.330313 27.98 1.02821 36.2466 -0.603992 45.8296C-1.3373 50.048 -2.41365 53.8924 -3.66736 57.3725C-11.4617 57.823 -18.9485 59.3662 -26.0214 61.853C-27.0031 60.2478 -27.8901 58.5624 -28.6826 56.5747C-30.2438 52.638 -30.918 48.9491 -31.19 45.8782C-26.6128 43.4315 -24.2591 38.2987 -25.8677 33.7586C-27.6418 28.7655 -33.5437 26.3893 -39.0554 28.4535C-44.5552 30.5178 -47.583 36.2381 -45.797 41.2324C-44.2595 45.5406 -39.6585 47.8926 -34.892 47.1313C-33.4964 50.071 -32.1598 53.46 -31.119 57.3105C-30.5513 59.3492 -30.1373 61.3431 -29.818 63.2932C-36.2403 65.9051 -42.2605 69.3111 -47.7958 73.3874C-50.7054 71.2248 -53.686 68.7149 -56.631 65.7739C-63.4082 59.002 -67.9264 52.0563 -70.8951 46.4938C-67.607 42.7587 -67.0274 37.4111 -69.7833 33.727C-72.9412 29.5111 -79.2689 29.0666 -83.9172 32.7325C-88.5535 36.3996 -89.7599 42.7879 -86.6138 47.0026C-83.8107 50.7268 -78.5593 51.5015 -74.1594 49.1021C-69.8779 53.0448 -64.3071 59.263 -60.0019 68.2024C-58.0267 72.2909 -56.6547 76.2664 -55.6848 79.9736C-56.5719 80.8114 -57.4708 81.6759 -58.3342 82.5574C-62.6513 87.0053 -66.5189 91.9304 -69.8306 97.2598C-71.7821 96.683 -73.8046 95.9848 -75.8744 95.13C-82.6043 92.3481 -87.8202 88.8013 -91.6051 85.711C-89.9965 80.9049 -91.5696 75.7199 -95.5673 73.4711C-100.097 70.9151 -106.058 73.1202 -108.873 78.3962C-111.7 83.6698 -110.304 90.018 -105.751 92.5728C-101.765 94.8191 -96.679 93.3839 -93.5921 89.4205C-89.003 91.0501 -83.2785 93.6644 -77.3766 97.9568C-75.6143 99.2391 -74.0057 100.558 -72.5036 101.884C-77.1755 110.527 -80.4399 120.079 -81.9893 130.221C-86.0225 130.574 -90.3749 130.744 -95.0468 130.596C-101.718 130.386 -107.738 129.584 -113.001 128.539C-113.119 123.235 -116.573 118.796 -121.257 118.291C-126.413 117.735 -131.085 122.135 -131.7 128.118C-132.304 134.101 -128.625 139.4 -123.48 139.953C-118.891 140.448 -114.704 137.014 -113.391 132.036C-107.998 132.148 -101.942 132.643 -95.3781 133.803C-90.8245 134.606 -86.6257 135.629 -82.7344 136.767C-82.9236 139.071 -83.0064 141.4 -83.0064 143.755C-83.0064 149.349 -82.4978 154.82 -81.5043 160.124C-85.9751 163.158 -92.1255 166.599 -99.9671 169.016C-106.839 171.135 -113.025 171.856 -117.957 172.011C-119.731 167.295 -124.131 164.353 -128.59 165.236C-133.664 166.243 -136.893 171.847 -135.781 177.753C-134.669 183.661 -129.642 187.631 -124.568 186.624C-120.169 185.752 -117.176 181.445 -117.164 176.478C-112.114 174.793 -106.153 173.211 -99.3758 172.181C-91.5932 170.998 -84.6032 170.828 -78.713 171.091C-76.3594 178.41 -73.0476 185.286 -68.9671 191.579C-70.895 193.144 -73.0358 194.689 -75.4605 196.133C-80.085 198.899 -84.5204 200.619 -88.3762 201.732C-90.9782 197.459 -95.8511 195.453 -100.062 197.199C-104.852 199.195 -106.969 205.332 -104.769 210.904C-103.385 214.401 -100.629 216.856 -97.578 217.695C-95.7802 218.198 -93.8759 218.137 -92.0899 217.396C-91.5695 217.175 -91.061 216.9 -90.5997 216.573C-87.0988 214.191 -85.6085 209.251 -87.0869 204.539C-83.444 202.609 -79.1861 200.698 -74.2895 199.122C-71.1315 198.112 -68.1274 197.374 -65.3006 196.825C-62.7222 200.249 -59.8836 203.462 -56.8439 206.427C-56.56 206.71 -56.2644 206.993 -55.9805 207.256C-58.0385 211.973 -61.1374 217.704 -65.8092 223.514C-70.3865 229.202 -75.1411 233.342 -79.1507 236.268C-83.1602 233.342 -88.4235 233.406 -91.6524 236.682C-95.3426 240.417 -94.9877 246.917 -90.8599 251.199C-86.7558 255.472 -80.4162 255.916 -76.7378 252.179C-73.5326 248.937 -73.3789 243.605 -76.0992 239.464C-72.9531 235.25 -68.8489 230.5 -63.6093 225.81C-57.9675 220.777 -52.4086 217.051 -47.5593 214.304C-41.1488 218.984 -34.0641 222.772 -26.5063 225.484C-26.802 228.407 -27.3106 231.559 -28.1503 234.871C-29.9718 242.086 -32.6921 247.87 -35.1641 252.127C-40.0252 251.128 -44.8272 253.407 -46.4712 257.77C-48.3282 262.724 -45.4067 268.499 -39.9424 270.671C-34.4899 272.844 -28.5525 270.583 -26.6719 265.62C-25.0515 261.311 -27.0386 256.383 -31.19 253.751C-30.0191 248.62 -28.1622 242.553 -25.2289 236.036C-23.786 232.858 -22.2602 229.961 -20.699 227.321C-14.868 228.937 -8.80056 229.927 -2.53197 230.2C-1.5148 235.234 -0.686872 240.867 -0.28474 247.022C0.318462 256.179 -0.166367 264.287 -1.01796 270.98C-5.77262 271.926 -9.3328 275.775 -9.3328 280.377C-9.3328 285.693 -4.58987 290.001 1.28842 290.001C7.14305 290.001 11.8858 285.693 11.8858 280.377C11.8858 275.793 8.34936 271.951 3.61835 270.988C2.8259 264.145 2.40011 256.057 2.84956 247.022C3.15707 240.928 3.83124 235.304 4.68282 230.217C11.2353 229.961 17.5867 228.929 23.6542 227.206C24.1746 228.124 24.6833 229.078 25.18 230.059C28.4799 236.531 30.254 242.599 31.2121 247.455C26.9896 249.972 24.837 254.864 26.3628 259.227C28.0896 264.233 33.9797 266.653 39.5031 264.639C45.0147 262.617 48.0899 256.921 46.3513 251.915C44.8137 247.473 39.9998 245.07 35.0796 245.989C32.8205 242.006 30.1948 235.992 29.2841 228.292C29.1658 227.338 29.0831 226.403 29.0358 225.484C35.7893 223.082 42.1525 219.806 48.0072 215.796C51.7801 218.949 55.7541 222.71 59.7045 227.179C65.7839 234.049 70.2073 240.824 73.4008 246.58C70.16 250.307 69.6041 255.615 72.3363 259.279C75.5061 263.491 81.822 263.933 86.4702 260.268C91.1066 256.604 92.3131 250.22 89.167 245.999C86.4348 242.36 81.337 241.529 77.0082 243.746C72.3481 238.898 67.1796 232.761 62.2002 225.219C58.9831 220.344 56.3219 215.612 54.1338 211.169C56.4875 209.217 58.7347 207.142 60.8873 204.943C64.3882 201.341 67.5935 197.428 70.4321 193.243C75.6717 194.745 81.7155 196.944 88.126 200.245C94.3118 203.417 99.4686 206.904 103.62 210.154C102.047 214.87 103.537 219.973 107.441 222.251C111.935 224.892 117.932 222.791 120.841 217.572C123.751 212.344 122.45 205.977 117.955 203.336C114.028 201.032 108.931 202.348 105.785 206.216C101.148 204.404 95.5183 201.659 89.6873 197.446C83.6316 193.075 79.0544 188.386 75.7427 184.341C77.9781 180.033 79.8704 175.502 81.3843 170.786C83.8918 170.875 86.553 171.104 89.297 171.528C96.3817 172.623 102.284 174.68 106.825 176.729C106.435 181.763 109.203 186.372 113.591 187.529C118.606 188.854 123.857 185.207 125.324 179.379C126.778 173.551 123.904 167.758 118.878 166.433C114.478 165.266 109.877 167.952 107.831 172.587C103.017 172.181 96.8311 171.094 90.0776 168.411C87.5228 167.386 85.1574 166.247 83.0047 165.055C84.0811 160.685 84.838 156.188 85.2283 151.579C89.5927 151.217 94.2291 150.987 99.1139 150.978C107.724 150.952 115.554 151.587 122.426 152.523C123.254 157.372 126.885 161.063 131.32 161.205C136.501 161.355 140.841 156.603 140.995 150.59C141.161 144.577 137.104 139.578 131.935 139.428Z" fill="#128E5A" fill-opacity="0.74"/>
</g>
<defs>
<filter id="filter0_d" x="-141" y="0.00128174" width="287" height="297" filterUnits="userSpaceOnUse" color-interpolation-filters="sRGB">
<feFlood flood-opacity="0" result="BackgroundImageFix"/>
<feColorMatrix in="SourceAlpha" type="matrix" values="0 0 0 0 0 0 0 0 0 0 0 0 0 0 0 0 0 0 127 0"/>
<feOffset dy="2"/>
<feGaussianBlur stdDeviation="2.5"/>
<feColorMatrix type="matrix" values="0 0 0 0 0 0 0 0 0 0 0 0 0 0 0 0 0 0 0.1 0"/>
<feBlend mode="normal" in2="BackgroundImageFix" result="effect1_dropShadow"/>
<feBlend mode="normal" in="SourceGraphic" in2="effect1_dropShadow" result="shape"/>
</filter>
</defs>
</svg>
