<svg width="166" height="479" viewBox="0 0 166 479" fill="none" xmlns="http://www.w3.org/2000/svg">
<g opacity="0.5" filter="url(#filter0_d)">
<path d="M308.692 301.015C303.635 300.866 299.277 304.804 298.039 310.218C290.211 310.834 281.267 311.044 271.448 310.416C265.988 310.057 260.796 309.479 255.94 308.762C255.967 307.815 255.981 306.858 255.981 305.901C255.981 301.246 255.645 296.67 255.026 292.193C257.501 290.268 260.594 288.245 264.347 286.511C270.843 283.48 276.923 282.404 281.617 282.094C283.917 287.407 289.203 290.499 294.26 289.152C299.963 287.638 303.231 281.087 301.536 274.518C299.855 267.947 293.883 263.84 288.18 265.355C282.989 266.741 279.814 272.304 280.568 278.256C276.465 280.629 270.359 283.2 262.8 283.39C259.074 283.49 255.806 282.981 253.156 282.324C251.475 275.374 249.067 268.715 245.987 262.435C249.242 259.444 253.089 256.273 257.595 253.212C264.118 248.767 270.413 245.587 275.941 243.303C279.545 247.591 285.289 249.017 289.727 246.405C294.825 243.413 296.25 236.205 292.928 230.323C289.606 224.442 282.76 222.109 277.662 225.11C273.237 227.711 271.569 233.493 273.399 238.818C268.651 242.565 262.813 246.523 255.806 250.053C251.045 252.465 246.485 254.3 242.356 255.695C238.98 249.943 235.039 244.579 230.601 239.684C232.309 233.384 235.187 226.027 240.096 218.649C244.71 211.751 249.821 206.716 254.165 203.177C258.953 206.198 264.979 205.729 268.409 201.751C272.309 197.245 271.422 189.958 266.405 185.473C261.415 180.976 254.205 180.985 250.318 185.492C246.889 189.47 247.158 195.602 250.722 200.076C247.911 204.802 243.661 210.664 237.42 216.247C230.533 222.408 223.62 226.097 218.348 228.29C212.349 223.614 205.812 219.646 198.832 216.506C199.84 213.644 201.185 210.764 202.947 207.933C204.359 205.689 205.879 203.715 207.413 201.991C212.725 204.194 218.684 202.609 221.36 197.994C224.373 192.839 222.167 185.84 216.438 182.372C210.708 178.902 203.633 180.268 200.62 185.432C197.984 189.969 199.37 195.929 203.633 199.658C202.746 202.051 201.669 204.534 200.378 207.064C198.912 209.976 197.325 212.659 195.644 215.14C194.931 214.851 194.232 214.572 193.519 214.313C185.207 211.142 176.343 209.14 167.103 208.461C165.583 204.294 164.265 199.676 163.337 194.604C161.454 184.254 161.803 175.246 162.678 168.482C168.112 167.421 172.173 163.075 172.173 157.867C172.173 151.866 166.78 147.001 160.122 147.001C153.451 147.001 148.044 151.866 148.044 157.867C148.044 163.164 152.254 167.57 157.822 168.532C159.033 175.2 159.826 184.532 157.97 195.351C157.136 200.113 155.912 204.453 154.487 208.382C145.623 208.89 137.109 210.632 129.066 213.44C127.95 211.628 126.941 209.725 126.04 207.481C124.264 203.037 123.498 198.872 123.188 195.406C128.393 192.643 131.07 186.849 129.241 181.723C127.223 176.087 120.512 173.404 114.244 175.735C107.99 178.065 104.546 184.523 106.577 190.161C108.326 195.024 113.558 197.68 118.978 196.82C120.565 200.139 122.085 203.965 123.269 208.312C123.915 210.613 124.385 212.864 124.749 215.066C117.445 218.014 110.599 221.859 104.304 226.461C100.996 224.02 97.6062 221.186 94.2571 217.866C86.5503 210.221 81.4122 202.38 78.0363 196.101C81.7754 191.884 82.4345 185.847 79.3006 181.688C75.7095 176.928 68.5137 176.427 63.2278 180.565C57.9554 184.705 56.5835 191.917 60.1612 196.675C63.3489 200.879 69.3207 201.754 74.3241 199.045C79.193 203.496 85.5281 210.516 90.4239 220.608C92.67 225.223 94.2302 229.711 95.3332 233.897C94.3244 234.842 93.3021 235.818 92.3203 236.814C87.411 241.835 83.0128 247.395 79.2468 253.411C77.0275 252.76 74.7276 251.972 72.3738 251.007C64.7207 247.866 58.7893 243.862 54.4852 240.374C56.3144 234.948 54.5256 229.094 49.9795 226.556C44.8281 223.67 38.0492 226.16 34.8481 232.116C31.6335 238.069 33.2207 245.236 38.399 248.12C42.9317 250.656 48.7152 249.036 52.2256 244.561C57.4443 246.401 63.9541 249.352 70.6657 254.198C72.6697 255.646 74.499 257.134 76.2071 258.631C70.8943 268.389 67.1821 279.173 65.4201 290.622C60.8336 291.021 55.8841 291.213 50.5713 291.045C42.9855 290.808 36.1393 289.902 30.154 288.723C30.0195 282.736 26.0921 277.724 20.7659 277.154C14.9016 276.526 9.58887 281.494 8.88947 288.248C8.20351 295.002 12.3865 300.984 18.2373 301.609C23.4559 302.167 28.2172 298.29 29.7102 292.671C35.8434 292.797 42.7298 293.357 50.1946 294.666C55.3729 295.572 60.1477 296.727 64.5728 298.012C64.3576 300.612 64.2635 303.242 64.2635 305.901C64.2635 312.216 64.8418 318.392 65.9717 324.379C60.8875 327.805 53.8934 331.69 44.976 334.418C37.1615 336.81 30.1272 337.624 24.5185 337.8C22.501 332.475 17.4975 329.154 12.4268 330.15C6.65673 331.288 2.98488 337.615 4.24919 344.282C5.5135 350.951 11.2298 355.434 16.9998 354.296C22.0033 353.312 25.4062 348.449 25.4197 342.843C31.1629 340.94 37.9416 339.154 45.6485 337.992C54.4987 336.656 62.4477 336.464 69.1458 336.761C71.8224 345.024 75.5885 352.785 80.2287 359.89C78.0364 361.657 75.6019 363.401 72.8446 365.031C67.5856 368.153 62.5418 370.096 58.1571 371.351C55.1981 366.528 49.6567 364.263 44.8684 366.234C39.4211 368.488 37.0136 375.416 39.5153 381.707C41.089 385.654 44.2228 388.426 47.6929 389.374C49.7374 389.941 51.9029 389.872 53.9338 389.035C54.5256 388.785 55.1039 388.476 55.6285 388.107C59.6097 385.417 61.3044 379.841 59.6232 374.521C63.7658 372.343 68.6079 370.185 74.1762 368.406C77.7674 367.265 81.1837 366.432 84.3983 365.812C87.3304 369.678 90.5584 373.305 94.0151 376.652C94.3379 376.972 94.6741 377.291 94.9969 377.589C92.6566 382.913 89.1326 389.383 83.8198 395.942C78.6146 402.363 73.2077 407.038 68.6481 410.34C64.0886 407.038 58.1033 407.109 54.4314 410.807C50.235 415.024 50.6385 422.362 55.3326 427.197C59.9997 432.021 67.209 432.521 71.392 428.303C75.037 424.643 75.2118 418.624 72.1182 413.948C75.696 409.191 80.3632 403.829 86.3216 398.535C92.7373 392.853 99.0589 388.646 104.573 385.545C111.863 390.828 119.92 395.105 128.515 398.166C128.178 401.465 127.6 405.024 126.645 408.764C124.574 416.909 121.48 423.438 118.669 428.244C113.141 427.116 107.68 429.689 105.811 434.614C103.699 440.207 107.021 446.727 113.235 449.179C119.436 451.631 126.188 449.079 128.326 443.477C130.169 438.612 127.909 433.049 123.188 430.077C124.52 424.285 126.631 417.435 129.967 410.078C131.608 406.491 133.343 403.22 135.118 400.24C141.749 402.064 148.649 403.182 155.778 403.49C156.934 409.173 157.876 415.533 158.333 422.481C159.019 432.819 158.468 441.971 157.499 449.527C152.093 450.595 148.044 454.941 148.044 460.136C148.044 466.137 153.438 471.001 160.122 471.001C166.78 471.001 172.173 466.137 172.173 460.136C172.173 454.961 168.152 450.624 162.772 449.537C161.871 441.811 161.386 432.68 161.898 422.481C162.247 415.601 163.014 409.252 163.982 403.509C171.434 403.22 178.656 402.055 185.556 400.11C186.148 401.146 186.726 402.223 187.291 403.331C191.044 410.637 193.061 417.487 194.151 422.969C189.349 425.811 186.901 431.334 188.636 436.259C190.6 441.911 197.298 444.643 203.579 442.369C209.847 440.087 213.344 433.656 211.367 428.004C209.618 422.99 204.144 420.277 198.549 421.315C195.98 416.818 192.994 410.029 191.958 401.337C191.824 400.259 191.73 399.204 191.676 398.166C199.356 395.454 206.592 391.756 213.25 387.23C217.541 390.788 222.06 395.035 226.552 400.08C233.465 407.836 238.496 415.483 242.127 421.982C238.442 426.189 237.81 432.181 240.917 436.318C244.521 441.074 251.704 441.573 256.99 437.434C262.262 433.298 263.634 426.091 260.056 421.326C256.949 417.217 251.152 416.28 246.23 418.783C240.93 413.309 235.053 406.381 229.39 397.867C225.732 392.363 222.705 387.021 220.217 382.005C222.894 379.803 225.449 377.46 227.897 374.977C231.878 370.91 235.523 366.493 238.751 361.768C244.71 363.464 251.583 365.946 258.873 369.674C265.907 373.254 271.771 377.191 276.492 380.859C274.703 386.184 276.398 391.945 280.837 394.517C285.948 397.498 292.767 395.125 296.076 389.234C299.384 383.332 297.905 376.144 292.794 373.162C288.328 370.562 282.531 372.048 278.954 376.414C273.681 374.369 267.279 371.269 260.648 366.514C253.762 361.579 248.556 356.285 244.79 351.719C247.333 346.855 249.484 341.741 251.206 336.416C254.057 336.517 257.084 336.776 260.204 337.254C268.261 338.49 274.972 340.813 280.137 343.125C279.693 348.809 282.841 354.012 287.831 355.319C293.534 356.814 299.505 352.696 301.173 346.118C302.827 339.538 299.559 332.998 293.843 331.502C288.839 330.185 283.607 333.217 281.281 338.449C275.806 337.991 268.772 336.765 261.092 333.735C258.187 332.578 255.497 331.292 253.049 329.946C254.273 325.013 255.133 319.937 255.577 314.733C260.54 314.325 265.813 314.065 271.368 314.054C281.159 314.026 290.063 314.743 297.878 315.799C298.819 321.273 302.949 325.44 307.992 325.601C313.883 325.769 318.82 320.405 318.994 313.617C319.183 306.829 314.569 301.185 308.692 301.015Z" fill="#FF383D"/>
</g>
<g opacity="0.5" filter="url(#filter1_d)">
<path d="M129.811 62.2725C127.756 62.2121 125.985 63.8044 125.483 65.9931C122.302 66.2425 118.667 66.3273 114.677 66.0735C112.458 65.9283 110.349 65.6944 108.376 65.4045C108.387 65.0215 108.392 64.6347 108.392 64.2478C108.392 62.3656 108.256 60.5155 108.004 58.7053C109.01 57.9272 110.267 57.1091 111.792 56.408C114.432 55.1825 116.902 54.7475 118.809 54.6222C119.744 56.7705 121.892 58.0203 123.947 57.476C126.264 56.8636 127.592 54.2149 126.904 51.5589C126.22 48.9024 123.794 47.2418 121.476 47.8543C119.367 48.4146 118.077 50.6638 118.383 53.0703C116.716 54.0297 114.235 55.0695 111.163 55.146C109.649 55.1864 108.321 54.9808 107.244 54.7153C106.561 51.9053 105.583 49.2127 104.331 46.6738C105.654 45.4644 107.217 44.1824 109.048 42.9448C111.699 41.1473 114.257 39.8615 116.503 38.9382C117.968 40.6718 120.301 41.2483 122.105 40.1924C124.176 38.9825 124.756 36.0683 123.406 33.69C122.056 31.3123 119.274 30.3689 117.202 31.5822C115.404 32.6341 114.727 34.9719 115.47 37.1246C113.541 38.6399 111.169 40.2401 108.321 41.6672C106.386 42.6427 104.534 43.3843 102.856 43.9485C101.484 41.6229 99.8826 39.4541 98.079 37.4749C98.7731 34.9276 99.9427 31.953 101.938 28.97C103.812 26.181 105.889 24.1453 107.654 22.7142C109.6 23.9358 112.049 23.7463 113.442 22.1378C115.027 20.316 114.667 17.3697 112.628 15.5562C110.6 13.7382 107.671 13.7416 106.091 15.5639C104.698 17.1723 104.807 19.6515 106.255 21.4605C105.113 23.3716 103.386 25.7416 100.85 27.999C98.0516 30.4898 95.2424 31.9812 93.0999 32.868C90.6624 30.9775 88.0062 29.373 85.1696 28.1037C85.5795 26.9465 86.1261 25.782 86.842 24.6375C87.4159 23.7302 88.0335 22.9321 88.6566 22.2348C90.8154 23.1255 93.2366 22.4848 94.3242 20.6186C95.5485 18.5347 94.6521 15.7047 92.3238 14.3025C89.9956 12.8997 87.1208 13.4516 85.8965 15.5395C84.8253 17.3741 85.3883 19.7839 87.1208 21.2915C86.7601 22.2592 86.3228 23.263 85.7982 24.2861C85.2024 25.4633 84.5575 26.548 83.8743 27.5512C83.5846 27.4342 83.3005 27.3217 83.0108 27.2169C79.6332 25.935 76.0314 25.1252 72.2767 24.8508C71.6591 23.1659 71.1235 21.2987 70.7463 19.248C69.9812 15.0634 70.1233 11.4215 70.4786 8.68628C72.6866 8.25729 74.3371 6.50035 74.3371 4.39476C74.3371 1.96828 72.1455 0.00121929 69.4401 0.0012193C66.7293 0.00121931 64.5321 1.96828 64.5321 4.39476C64.5321 6.53637 66.2428 8.3177 68.5055 8.70679C68.9974 11.4026 69.3199 15.1759 68.5657 19.55C68.2268 21.4755 67.7294 23.2303 67.1501 24.8187C63.5484 25.0244 60.0888 25.7288 56.8204 26.8639C56.3668 26.1312 55.9569 25.3619 55.5907 24.4546C54.8693 22.6577 54.5577 20.9739 54.432 19.5722C56.5472 18.4554 57.6348 16.1126 56.8915 14.0403C56.0717 11.7612 53.3444 10.6766 50.7975 11.6188C48.2561 12.561 46.857 15.172 47.6822 17.4517C48.3927 19.4181 50.5188 20.4917 52.7214 20.1442C53.3663 21.486 53.9839 23.0329 54.4649 24.7904C54.7272 25.721 54.9185 26.6311 55.0661 27.5212C52.0983 28.7134 49.3164 30.2681 46.7586 32.1287C45.4141 31.1416 44.0368 29.9959 42.6759 28.6535C39.5442 25.5625 37.4564 22.3922 36.0846 19.8532C37.604 18.1483 37.8718 15.7075 36.5984 14.0259C35.1391 12.1015 32.2151 11.8987 30.0672 13.5719C27.9247 15.2458 27.3673 18.1617 28.8211 20.0855C30.1164 21.7853 32.543 22.1389 34.5761 21.0438C36.5546 22.8434 39.1289 25.6817 41.1183 29.762C42.031 31.6282 42.665 33.4428 43.1132 35.1349C42.7033 35.5174 42.2879 35.9119 41.8889 36.3143C39.894 38.3445 38.1068 40.5925 36.5765 43.0251C35.6747 42.7619 34.7401 42.4432 33.7837 42.053C30.6738 40.7832 28.2636 39.1643 26.5146 37.7537C27.2579 35.56 26.531 33.1934 24.6837 32.1669C22.5905 31.0002 19.8359 32.0067 18.5351 34.4149C17.2289 36.822 17.8738 39.7196 19.978 40.8858C21.8199 41.9111 24.17 41.256 25.5965 39.4469C27.717 40.1907 30.3623 41.384 33.0895 43.3433C33.9039 43.9286 34.6472 44.5305 35.3413 45.1357C33.1825 49.0808 31.674 53.4411 30.958 58.0702C29.0943 58.2315 27.0831 58.309 24.9242 58.2414C21.8417 58.1455 19.0598 57.7792 16.6277 57.3026C16.573 54.8816 14.9771 52.8553 12.8128 52.6247C10.4299 52.3709 8.27103 54.3794 7.98683 57.1102C7.70809 59.841 9.40784 62.2597 11.7853 62.5125C13.9059 62.7381 15.8406 61.1706 16.4473 58.8988C18.9395 58.9498 21.7378 59.1759 24.7711 59.7052C26.8753 60.0716 28.8156 60.5388 30.6137 61.0581C30.5263 62.1095 30.488 63.1726 30.488 64.2478C30.488 66.8012 30.723 69.2981 31.1821 71.7191C29.1162 73.1041 26.2741 74.6748 22.6506 75.7778C19.4752 76.745 16.6168 77.0742 14.3377 77.1451C13.5179 74.9924 11.4847 73.6495 9.42423 74.0524C7.07956 74.5124 5.58751 77.0703 6.10126 79.7662C6.61501 82.4626 8.9378 84.2749 11.2825 83.8149C13.3156 83.417 14.6984 81.4511 14.7039 79.1842C17.0376 78.4149 19.7921 77.6927 22.9238 77.2227C26.5201 76.6829 29.7502 76.6053 32.472 76.725C33.5596 80.066 35.0899 83.2041 36.9755 86.0768C36.0846 86.7912 35.0954 87.4962 33.9749 88.1552C31.838 89.4178 29.7884 90.2031 28.0067 90.7108C26.8043 88.7604 24.5525 87.8448 22.6069 88.6418C20.3934 89.553 19.4151 92.3542 20.4316 94.8976C21.0711 96.4938 22.3445 97.6145 23.7546 97.9975C24.5853 98.227 25.4653 98.1993 26.2906 97.8606C26.5311 97.7597 26.766 97.6345 26.9792 97.4854C28.597 96.398 29.2856 94.1433 28.6024 91.9923C30.2858 91.1116 32.2534 90.2392 34.516 89.5198C35.9753 89.0586 37.3635 88.7217 38.6698 88.4711C39.8612 90.0341 41.1729 91.5006 42.5776 92.8541C42.7087 92.9832 42.8453 93.1124 42.9765 93.2327C42.0255 95.3854 40.5936 98.0014 38.4347 100.653C36.3196 103.25 34.1225 105.14 32.2697 106.475C30.4169 105.14 27.9848 105.168 26.4928 106.664C24.7875 108.369 24.9515 111.335 26.8589 113.29C28.7555 115.241 31.6849 115.443 33.3847 113.738C34.8658 112.258 34.9368 109.824 33.6798 107.934C35.1336 106.01 37.0301 103.842 39.4513 101.702C42.0583 99.4042 44.6271 97.7032 46.8679 96.4495C49.8302 98.5856 53.104 100.315 56.5964 101.552C56.4597 102.887 56.2247 104.325 55.8367 105.837C54.995 109.131 53.7379 111.771 52.5957 113.714C50.3494 113.258 48.1304 114.298 47.3707 116.289C46.5126 118.551 47.8626 121.187 50.3876 122.178C52.9072 123.17 55.6508 122.138 56.5198 119.873C57.2686 117.906 56.3504 115.656 54.432 114.455C54.9731 112.113 55.8312 109.344 57.1866 106.369C57.8534 104.918 58.5584 103.596 59.2799 102.391C61.9743 103.129 64.7781 103.58 67.6748 103.705C68.1448 106.003 68.5274 108.574 68.7132 111.384C68.9919 115.563 68.7679 119.264 68.3744 122.319C66.1773 122.751 64.5321 124.508 64.5321 126.608C64.5321 129.035 66.7238 131.001 69.4401 131.001C72.1455 131.001 74.3371 129.035 74.3371 126.608C74.3371 124.516 72.703 122.762 70.5168 122.323C70.1506 119.199 69.9538 115.507 70.1615 111.384C70.3036 108.602 70.6152 106.035 71.0087 103.713C74.0365 103.596 76.9715 103.125 79.7752 102.338C80.0157 102.757 80.2507 103.193 80.4803 103.641C82.0052 106.595 82.825 109.365 83.2677 111.581C81.3165 112.73 80.3218 114.963 81.0268 116.954C81.8248 119.24 84.5466 120.344 87.0989 119.425C89.6458 118.502 91.0668 115.902 90.2634 113.617C89.5529 111.589 87.3284 110.492 85.0548 110.912C84.0109 109.094 82.7976 106.349 82.3768 102.834C82.3221 102.399 82.2839 101.972 82.262 101.552C85.3828 100.456 88.3232 98.9608 91.0286 97.1307C92.772 98.5695 94.6084 100.287 96.4339 102.326C99.2431 105.462 101.287 108.554 102.763 111.182C101.265 112.883 101.008 115.306 102.271 116.978C103.736 118.901 106.654 119.103 108.802 117.429C110.945 115.757 111.502 112.843 110.048 110.916C108.786 109.255 106.43 108.876 104.43 109.888C102.276 107.675 99.888 104.874 97.5871 101.432C96.1005 99.2063 94.8708 97.0464 93.8597 95.0185C94.9473 94.1278 95.9857 93.1806 96.9804 92.1768C98.5982 90.5324 100.079 88.7466 101.391 86.8361C103.812 87.5217 106.605 88.5255 109.567 90.0325C112.426 91.4801 114.809 93.0719 116.727 94.5551C116 96.7078 116.689 99.0373 118.492 100.077C120.569 101.283 123.34 100.323 124.685 97.941C126.029 95.555 125.428 92.6485 123.351 91.443C121.537 90.3916 119.181 90.9924 117.727 92.7577C115.585 91.9307 112.983 90.6776 110.289 88.7549C107.49 86.7596 105.375 84.6191 103.845 82.7729C104.878 80.8065 105.752 78.7386 106.452 76.5859C107.611 76.6264 108.84 76.7311 110.108 76.9245C113.382 77.4245 116.109 78.3634 118.208 79.2984C118.028 81.5963 119.307 83.7002 121.334 84.2284C123.652 84.8331 126.078 83.1681 126.756 80.5083C127.428 77.8479 126.1 75.2036 123.777 74.5989C121.744 74.0663 119.618 75.2923 118.673 77.4078C116.448 77.2227 113.59 76.7267 110.469 75.5018C109.289 75.034 108.195 74.5141 107.201 73.9698C107.698 71.9751 108.048 69.9227 108.228 67.8188C110.245 67.6536 112.387 67.5489 114.645 67.5444C118.624 67.5328 122.242 67.8227 125.417 68.25C125.8 70.4631 127.478 72.148 129.527 72.2129C131.921 72.281 133.927 70.1123 133.998 67.3676C134.074 64.623 132.2 62.3412 129.811 62.2725Z" fill="#128E5A"/>
</g>
<defs>
<filter id="filter0_d" x="0" y="147.001" width="323" height="332" filterUnits="userSpaceOnUse" color-interpolation-filters="sRGB">
<feFlood flood-opacity="0" result="BackgroundImageFix"/>
<feColorMatrix in="SourceAlpha" type="matrix" values="0 0 0 0 0 0 0 0 0 0 0 0 0 0 0 0 0 0 127 0"/>
<feOffset dy="4"/>
<feGaussianBlur stdDeviation="2"/>
<feColorMatrix type="matrix" values="0 0 0 0 0 0 0 0 0 0 0 0 0 0 0 0 0 0 0.07 0"/>
<feBlend mode="normal" in2="BackgroundImageFix" result="effect1_dropShadow"/>
<feBlend mode="normal" in="SourceGraphic" in2="effect1_dropShadow" result="shape"/>
</filter>
<filter id="filter1_d" x="2" y="0.0012207" width="136" height="139" filterUnits="userSpaceOnUse" color-interpolation-filters="sRGB">
<feFlood flood-opacity="0" result="BackgroundImageFix"/>
<feColorMatrix in="SourceAlpha" type="matrix" values="0 0 0 0 0 0 0 0 0 0 0 0 0 0 0 0 0 0 127 0"/>
<feOffset dy="4"/>
<feGaussianBlur stdDeviation="2"/>
<feColorMatrix type="matrix" values="0 0 0 0 0 0 0 0 0 0 0 0 0 0 0 0 0 0 0.07 0"/>
<feBlend mode="normal" in2="BackgroundImageFix" result="effect1_dropShadow"/>
<feBlend mode="normal" in="SourceGraphic" in2="effect1_dropShadow" result="shape"/>
</filter>
</defs>
</svg>
