<svg width="574" height="567" viewBox="0 0 574 567" fill="none" xmlns="http://www.w3.org/2000/svg">
<path d="M218.05 539.511C187.478 550.343 156.61 555.348 123.685 549.092C86.9858 542.116 55.1545 510.71 37.1687 479.39C30.486 467.757 25.1658 454.758 25.861 441.363C27.4786 410.418 56.7129 406.96 81.5283 411.965C95.5168 414.78 108.361 421.187 121.06 427.533C142.142 438.075 166.873 443.26 185.774 457.873C192.116 462.791 196.879 468.699 204.249 472.276C215.714 477.846 228.8 480.476 240.575 485.545C250.628 489.894 261.866 497.049 261.88 507.998C261.882 519.227 250.167 526.383 239.873 530.854C232.587 534.039 225.333 536.943 218.05 539.511Z" fill="url(#paint0_linear)"/>
<path d="M105.522 140.36C155.603 66.5547 259.161 36.9206 343.103 64.6697C383.58 78.0574 417.502 105.934 448.79 134.873C476.37 160.379 503.126 187.889 521.96 220.678C534.82 243.059 544.025 269.888 550.524 294.934C560.242 332.437 551.417 380.758 502.938 377.218C491.564 376.388 481.724 372.298 471.086 368.72C462.481 365.819 454.049 367.559 445.115 366.142C422.628 362.581 400.965 354.302 380.48 344.605C338.733 324.825 300.588 297.951 257.654 280.617C222.47 266.43 184.896 259.106 146.96 259.038C130.955 259.012 114.127 260.132 99.8101 252.976C64.5236 235.321 80.3916 187.716 93.57 160.936C97.0613 153.803 101.055 146.927 105.522 140.36Z" fill="url(#paint1_linear)"/>
<path d="M498.186 151.499C506.43 158.967 538.825 179.353 539.448 155.429C539.596 149.47 536.893 143.683 533.214 139.318C529.005 134.308 524.233 131.681 520.946 125.844C516.924 118.797 512.346 112.174 507.271 106.06C496.897 93.335 484.785 81.5777 470.088 76.3392C459.78 72.6693 442.328 73.5922 437.432 86.8032C430.298 106.035 460.8 109.559 470.102 116.567C478.93 123.201 483.93 134.6 490.923 143.659C493.133 146.516 495.564 149.14 498.186 151.499Z" fill="url(#paint2_linear)"/>
<path d="M345.721 128.108C363.185 138.39 376.285 153.781 392.208 166.176C418.717 186.809 455.053 191.03 485.453 205.379C516.45 220.019 539.857 242.772 550.44 275.565C564.111 317.892 565.411 368.229 553.795 411.745C541.003 459.644 510.963 491.462 467.041 512.681C423.144 533.888 374.516 543.784 326.016 545.826C321.335 546.027 316.663 546.135 311.972 546.165C206.609 546.777 66.3645 509.69 30.4928 396.504C30.164 395.47 29.8489 394.436 29.5328 393.387C25.8366 380.777 23.6632 367.769 23.0593 354.643C20.803 308.106 28.9478 256.741 45.2631 213.116C56.2366 183.745 79.8663 158.911 104.766 141.217C139.749 116.358 182.434 110.013 224.918 107.031C256.377 104.824 291.759 104.017 321.508 116.05C329.869 119.459 337.963 123.489 345.721 128.108Z" fill="url(#paint3_linear)"/>
<path d="M419.102 536.124C284.051 575.392 171.509 537.526 132.119 513.685L95.5426 485.636L108.204 464.599L186.983 457.587L317.814 450.575L423.323 471.612L533.051 435.148H544.306C527.424 492.368 453.803 526.307 419.102 536.124Z" fill="#FB4C47"/>
<path d="M125.601 504.645H458.958C458.958 504.645 470.63 312.975 428.16 284.928C385.696 256.887 196.28 266.497 154.917 294.781C50.0283 366.496 125.601 504.645 125.601 504.645Z" fill="#FB4C47"/>
<path d="M181.098 244.543C180.617 244.543 180.13 244.387 179.731 244.051C178.81 243.304 157.436 225.313 169.131 189.052C173.214 176.373 177.217 167.4 180.75 159.471C187.116 145.204 191.715 134.888 192.584 112.842C192.63 111.643 193.65 110.745 194.843 110.751C196.042 110.803 196.975 111.811 196.928 113.01C196.025 135.89 191.037 147.081 184.718 161.243C181.231 169.069 177.28 177.937 173.255 190.385C162.516 223.714 181.665 240.014 182.482 240.691C183.403 241.456 183.542 242.823 182.777 243.744C182.349 244.271 181.723 244.543 181.098 244.543Z" fill="#000C3E"/>
<path d="M299.432 28.287C298.87 43.3356 286.214 55.0709 271.165 54.5091C256.122 53.9472 244.381 41.2909 244.943 26.2481C245.511 11.1995 258.161 -0.541648 273.21 0.020211C288.253 0.587863 299.994 13.2384 299.432 28.287Z" fill="#000C3E"/>
<path d="M178.659 233.955C178.659 233.955 186.658 250.451 219.316 256.25C251.979 262.054 277.61 250.237 302.824 259.383C328.039 268.524 364.467 256.609 371.69 246.014C378.907 235.42 377.395 118.096 357.516 98.4189C337.631 78.748 233.461 62.3267 210.888 85.3456C188.315 108.37 164.34 220.742 178.659 233.955Z" fill="#000C3E"/>
<path d="M367.233 141.391C365.374 190.974 323.675 229.667 274.092 227.808C224.509 225.949 185.816 184.249 187.676 134.661C189.535 85.078 231.234 46.3907 280.817 48.2501C330.4 50.1036 369.093 91.8087 367.233 141.391Z" fill="#000C3E"/>
<path d="M314.307 216.508C314.307 216.508 320.14 286.475 314.307 294.248C308.474 302.021 271.547 296.194 261.834 294.248C252.114 292.307 248.227 216.508 254.055 216.508C259.887 216.508 313.189 200.91 314.307 216.508Z" fill="#FFCEB0"/>
<path d="M204.101 134.657C204.101 134.657 207.797 243.71 281.522 248.419C355.253 253.123 355.178 99.4741 328.498 84.86C301.813 70.2458 190.472 72.9856 204.101 134.657Z" fill="#FFCEB0"/>
<path d="M279.803 158C279.803 158 293.885 191.567 290.259 193.791C286.638 196.016 276.032 195.616 273.177 193.148C270.321 190.681 274.046 154.247 279.803 158Z" fill="#EE9B68"/>
<path d="M262.153 76.5007C262.153 76.5007 235.717 89.2845 230.689 113.282C225.655 137.286 228.262 198.737 200.25 195.916C200.25 195.916 146.016 74.2996 262.153 76.5007Z" fill="#000C3E"/>
<path d="M276.088 77.0216C273.69 78.742 303.347 78.6667 320.301 99.2238C337.261 119.775 341.287 171.148 343.905 172.098C346.529 173.053 357.002 108.445 338.408 89.035C319.82 69.6248 289.735 67.2499 276.088 77.0216Z" fill="#000C3E"/>
<path d="M255.081 238.474C255.081 238.474 283.77 254.785 313.549 239.539C313.549 239.539 315.866 257.849 313.549 262.072C311.232 266.294 264.059 269.312 254.774 248.5C254.774 248.5 252.399 237.57 255.081 238.474Z" fill="#EE9B68"/>
<path d="M337.545 176.479C337.545 176.479 344.606 149.18 356.915 158.894C369.229 168.613 358.091 197.141 345.921 199.73C333.751 202.319 330.82 190.555 337.545 176.479Z" fill="#FFCEB0"/>
<path d="M221.264 172.122C221.264 172.122 216.265 144.371 203.261 153.141C190.257 161.905 199.23 191.191 211.174 194.684C223.118 198.171 226.912 186.661 221.264 172.122Z" fill="#FFCEB0"/>
<path d="M307.148 142.657C307.148 142.657 319.387 134.444 328.417 143.422C336.359 151.317 319.578 146.017 313.798 147.76C308.011 149.504 300.162 149.846 307.148 142.657Z" fill="#41294A"/>
<path d="M256.13 144.598C256.13 144.598 244.401 135.672 234.855 144.106C226.462 151.514 243.52 147.217 249.191 149.302C254.862 151.387 262.681 152.186 256.13 144.598Z" fill="#41294A"/>
<path d="M250.222 153.704C238.835 153.704 229.578 162.63 229.144 174.029C228.709 185.66 237.821 195.478 249.452 195.907L250.263 195.924C261.651 195.924 270.907 186.998 271.341 175.605C271.776 163.968 262.659 154.15 251.033 153.721L250.222 153.704ZM250.263 198.82L249.342 198.803C236.112 198.311 225.755 187.143 226.248 173.913C226.74 160.961 237.271 150.807 250.222 150.807L251.143 150.825C264.367 151.317 274.724 162.485 274.238 175.72C273.745 188.672 263.215 198.82 250.263 198.82Z" fill="#FFFCF6"/>
<path d="M310.124 150.339C298.731 150.339 289.474 159.265 289.046 170.664C288.831 176.294 290.83 181.675 294.664 185.805C298.499 189.941 303.718 192.333 309.354 192.542L310.165 192.559C321.552 192.559 330.809 183.633 331.243 172.234C331.452 166.604 329.453 161.222 325.619 157.087C321.784 152.957 316.571 150.564 310.935 150.356L310.124 150.339ZM310.165 195.455L309.244 195.438C302.837 195.2 296.906 192.478 292.544 187.78C288.183 183.077 285.906 176.96 286.15 170.548C286.636 157.596 297.167 147.442 310.124 147.442L311.045 147.46C317.451 147.697 323.383 150.42 327.745 155.117C332.106 159.821 334.377 165.937 334.139 172.35C333.647 185.301 323.116 195.455 310.165 195.455Z" fill="#FFFCF6"/>
<path d="M228.406 170.606C228.232 170.606 228.046 170.572 227.873 170.502L219.097 167.038C218.35 166.743 217.985 165.903 218.28 165.161C218.576 164.414 219.404 164.055 220.157 164.345L228.938 167.814C229.686 168.104 230.045 168.95 229.749 169.691C229.523 170.259 228.985 170.606 228.406 170.606Z" fill="#FFFCF6"/>
<path d="M331.856 166.775C331.231 166.775 330.646 166.364 330.466 165.721C330.246 164.957 330.692 164.157 331.462 163.937L343.661 160.444C344.443 160.23 345.237 160.67 345.451 161.441C345.671 162.211 345.225 163.01 344.455 163.23L332.25 166.717C332.123 166.758 331.984 166.775 331.856 166.775Z" fill="#FFFCF6"/>
<path d="M271.094 70.774C271.094 70.774 274.419 129.885 290.713 135.249C307.007 140.618 347.067 139.147 349.002 132.683C350.936 126.213 317.937 74.1857 294.258 65.8447C252.733 51.2131 216.889 118.729 221.627 134.994C226.366 151.265 262.047 137.027 269.658 134.936C277.275 132.845 269.571 82.4572 271.094 70.774Z" fill="#000C3E"/>
<path d="M272.797 175.838C272.044 175.838 271.412 175.258 271.355 174.505C271.291 173.706 271.887 173.011 272.681 172.947L287.544 171.789C288.436 171.65 289.039 172.327 289.097 173.115C289.16 173.915 288.569 174.61 287.77 174.673L272.913 175.832C272.872 175.838 272.832 175.838 272.797 175.838Z" fill="#FFFCF6"/>
<path d="M255.162 54.5486C254.82 54.5486 254.484 54.4675 254.166 54.3053C246.195 50.1927 241.44 44.4583 240.038 37.2641C236.962 21.4741 251.304 4.54881 251.918 3.83635C252.7 2.91536 254.067 2.8111 254.982 3.60465C255.892 4.38663 255.996 5.75362 255.214 6.66303C255.075 6.82521 241.625 22.7253 244.307 36.4416C245.442 42.263 249.433 46.9722 256.158 50.4476C257.224 50.9979 257.641 52.3069 257.091 53.3727C256.708 54.1199 255.95 54.5486 255.162 54.5486Z" fill="#000C3E"/>
<path d="M286.601 59.4021C285.987 59.4021 285.367 59.1357 284.939 58.6201C284.168 57.7049 284.29 56.3379 285.211 55.5675C285.367 55.4285 301.256 41.9497 300.862 27.9785C300.7 22.0529 297.537 16.7528 291.473 12.2232C290.511 11.505 290.314 10.1438 291.032 9.18222C291.756 8.21489 293.106 8.02953 294.073 8.742C301.256 14.1115 305.009 20.5469 305.206 27.8742C305.647 43.9538 288.715 58.2958 287.991 58.8982C287.586 59.2399 287.094 59.4021 286.601 59.4021Z" fill="#000C3E"/>
<path d="M364.459 242.711C363.81 242.711 363.167 242.421 362.738 241.871C362.003 240.921 362.171 239.56 363.121 238.824C363.868 238.239 381.453 224.21 376.854 200.577C375.053 191.321 371.751 181.074 368.247 170.225C362.147 151.324 355.84 131.775 355.73 112.904C355.724 111.705 356.691 110.726 357.89 110.72H357.902C359.095 110.72 360.068 111.687 360.074 112.88C360.178 131.08 366.382 150.305 372.377 168.893C375.922 179.869 379.27 190.232 381.117 199.749C386.238 226.058 366.619 241.61 365.785 242.259C365.385 242.566 364.922 242.711 364.459 242.711Z" fill="#000C3E"/>
<path d="M371.7 143.635C371.613 143.635 371.527 143.629 371.434 143.617C370.246 143.472 369.401 142.389 369.546 141.196C372.476 117.331 367.929 97.8054 356.02 83.1623C336.836 59.5699 304.688 56.6332 304.364 56.6158C303.171 56.5115 302.284 55.4631 302.377 54.2641C302.481 53.0767 303.53 52.1788 304.723 52.2831C306.113 52.3932 338.991 55.3646 359.363 80.3877C372.059 95.9808 376.937 116.625 373.855 141.729C373.722 142.824 372.783 143.635 371.7 143.635Z" fill="#000C3E"/>
<path d="M283.213 228.393C279.141 228.393 275.996 227.101 275.793 227.02C274.687 226.557 274.171 225.288 274.634 224.182C275.092 223.076 276.384 222.578 277.467 223.006C277.525 223.029 283.45 225.433 288.617 222.856C289.677 222.328 290.998 222.751 291.531 223.834C292.058 224.906 291.623 226.209 290.552 226.748C288.055 227.993 285.489 228.393 283.213 228.393Z" fill="#EE9B68"/>
<path d="M213.758 187.898C213.55 187.898 213.335 187.869 213.127 187.8C211.974 187.452 211.331 186.242 211.684 185.095C215.635 172.114 206.176 163.495 206.083 163.408C205.191 162.614 205.11 161.236 205.909 160.338C206.703 159.44 208.07 159.359 208.979 160.164C209.454 160.587 220.593 170.753 215.832 186.357C215.554 187.296 214.691 187.898 213.758 187.898Z" fill="#EE9B68"/>
<path d="M342.56 194.262C342.496 194.262 342.438 194.262 342.369 194.256C341.176 194.146 340.289 193.098 340.394 191.899C341.824 175.616 349.905 167.032 350.247 166.673C351.081 165.816 352.442 165.792 353.311 166.615C354.18 167.437 354.209 168.81 353.386 169.679C353.311 169.76 346.012 177.609 344.726 192.281C344.622 193.41 343.672 194.262 342.56 194.262Z" fill="#EE9B68"/>
<path d="M215.996 291.176C215.996 291.176 265.318 350.143 303.356 334.364C341.389 318.586 377.024 275.815 357.903 270.138C338.783 264.468 186.096 267.451 215.996 291.176Z" fill="#FFCEB0"/>
<path d="M348.352 211.728C348.352 211.728 363.232 319.57 349.319 331.758C335.412 343.945 317.82 333.275 294.211 341.355C270.601 349.43 269.79 316.645 271.412 299.824C273.034 283.003 280.732 176.163 348.352 211.728Z" fill="white"/>
<path d="M84.5052 378.64L55.3174 464.818L268.025 536.864C268.025 536.864 300.561 454.276 296.466 452.892C292.376 451.502 84.5052 378.64 84.5052 378.64Z" fill="#128E5A"/>
<path d="M126.543 482.884C126.543 482.884 162.913 457.757 161.639 464.146C160.371 470.54 146.301 482.884 146.301 482.884C146.301 482.884 171.851 463.109 173.519 472.996C175.187 482.884 166.221 492.268 166.221 492.268C166.221 492.268 184.195 477.943 187.097 485.352C189.999 492.76 166.806 525.527 146.301 524.578C125.802 523.628 116.517 489.58 126.543 482.884Z" fill="#FFC6A6"/>
<path d="M139.998 434.437L219.632 466.875C219.632 466.875 233.493 424.729 230.886 419.858C228.274 414.981 199.567 413.168 191.695 405.429C183.829 397.696 186.667 388.243 173.519 389.882C160.37 391.522 139.998 434.437 139.998 434.437Z" fill="white"/>
<path d="M285.145 221.295C284.902 221.295 284.647 221.255 284.404 221.168C278.119 218.891 275.003 216.088 274.887 212.601C274.702 207.034 282.672 203.246 284.271 202.54C285.377 202.065 286.651 202.551 287.132 203.652C287.619 204.752 287.121 206.032 286.02 206.513C283.13 207.793 279.168 210.568 279.231 212.456C279.249 212.977 279.782 214.872 285.887 217.078C287.011 217.49 287.596 218.735 287.19 219.865C286.866 220.745 286.032 221.295 285.145 221.295Z" fill="#EE9B68"/>
<path d="M258.978 179.82C258.462 179.82 257.953 179.641 257.541 179.276C248.447 171.248 242.07 173.397 241.809 173.484C240.715 173.877 239.44 173.321 239.029 172.209C238.606 171.091 239.151 169.858 240.263 169.423C240.616 169.284 249.183 166.098 260.414 176.021C261.312 176.814 261.399 178.187 260.606 179.085C260.177 179.571 259.58 179.82 258.978 179.82Z" fill="#41294A"/>
<path d="M303.62 180.313C303.017 180.313 302.421 180.064 301.992 179.577C301.199 178.679 301.286 177.307 302.183 176.513C313.392 166.608 321.976 169.771 322.329 169.916C323.453 170.35 324.009 171.613 323.569 172.725C323.14 173.843 321.883 174.405 320.783 173.97C320.464 173.86 314.098 171.781 305.056 179.768C304.645 180.133 304.135 180.313 303.62 180.313Z" fill="#41294A"/>
<path d="M444.564 472.555C444.564 472.555 471.26 506.53 512.514 482.262C556.127 445.439 565.902 397.326 548.04 360.887C525.05 322.236 468.253 279.556 453.718 279.629C439.176 279.707 388.49 417.675 444.564 472.555Z" fill="#D9423D"/>
<path d="M391.791 223.921C391.791 223.921 335.373 199.773 314.521 205.368C293.668 210.963 334.145 216.275 342.393 220.272C350.642 224.263 312.169 217.659 307.355 220.712C302.548 223.759 342.335 235.037 342.335 235.037C342.335 235.037 307.066 234.005 304.662 239.346C302.258 244.687 337.128 250.734 337.128 250.734C337.128 250.734 310.559 255.148 311.288 260.824C312.012 266.495 361.039 264.728 377.061 285.025C393.077 305.327 415.794 416.008 483.061 405.859C550.322 395.711 549.685 354.249 501.174 301.029C452.663 247.814 411.357 233.264 391.791 223.921Z" fill="#FFC6A6"/>
<path d="M282.332 8.62967C281.679 8.62967 280.969 8.70553 280.201 8.85726C278.327 9.23328 277.114 10.1437 276.385 11.7236C273.136 18.7559 279.986 35.5055 284.881 45.4008C287.906 34.4236 291.531 16.0743 286.409 10.2921C285.422 9.18051 284.08 8.62967 282.332 8.62967ZM285.452 53.6602C284.637 53.6602 283.875 53.2215 283.473 52.4958C281.741 49.392 266.727 21.8268 272.268 9.82371C273.601 6.93756 276.038 5.06404 279.314 4.41095C284.895 3.29937 288.101 5.3609 289.803 7.2839C298.702 17.331 288.77 48.5739 287.609 52.1033C287.326 52.9576 286.567 53.5645 285.67 53.6503C285.597 53.6569 285.525 53.6602 285.452 53.6602Z" fill="#FFD310"/>
<path d="M312.897 19.7836C312.683 19.7836 312.465 19.7968 312.247 19.8298C304.585 20.849 295.326 37.1005 290.431 47.3817C300.607 43.0971 316.746 34.9136 318.89 27.4723C319.372 25.7967 319.049 24.3157 317.878 22.805C316.301 20.7764 314.668 19.7836 312.897 19.7836ZM286.081 53.8038C285.47 53.8038 284.873 53.5597 284.441 53.1046C283.818 52.4515 283.64 51.4949 283.986 50.6637C285.418 47.2366 298.341 17.1085 311.647 15.334C314.197 14.9942 317.967 15.5286 321.457 20.0211C323.508 22.6598 324.128 25.6713 323.248 28.7257C319.586 41.428 290.194 52.4515 286.856 53.6686C286.602 53.761 286.341 53.8038 286.081 53.8038Z" fill="#FFD310"/>
<path d="M243.511 45.795C254.526 52.8757 279.702 58.383 299.37 45.795" stroke="#FFD310" stroke-width="4.87"/>
<defs>
<linearGradient id="paint0_linear" x1="23.1473" y1="445.634" x2="54.866" y2="555.769" gradientUnits="userSpaceOnUse">
<stop stop-color="#FFCBCB"/>
<stop offset="1" stop-color="#FFF1F1"/>
</linearGradient>
<linearGradient id="paint1_linear" x1="494.5" y1="186.001" x2="166.305" y2="33.7748" gradientUnits="userSpaceOnUse">
<stop stop-color="white"/>
<stop offset="1" stop-color="#FFDDDD"/>
</linearGradient>
<linearGradient id="paint2_linear" x1="540.289" y1="155.01" x2="447.14" y2="85.1453" gradientUnits="userSpaceOnUse">
<stop stop-color="#FFDDDD"/>
<stop offset="1" stop-color="#FFFBFC"/>
</linearGradient>
<linearGradient id="paint3_linear" x1="512.798" y1="498.072" x2="23.1593" y2="214.524" gradientUnits="userSpaceOnUse">
<stop stop-color="#FFE6E6"/>
<stop offset="1" stop-color="#FFF5F5"/>
</linearGradient>
</defs>
</svg>
