<svg width="556" height="575" viewBox="0 0 556 575" fill="none" xmlns="http://www.w3.org/2000/svg">
<path d="M210.917 548.353C181.282 558.853 151.359 563.704 119.442 557.64C83.8671 550.878 53.0108 520.434 35.5758 490.074C29.0978 478.796 23.9406 466.196 24.6145 453.211C26.1825 423.214 54.5214 419.862 78.5767 424.713C92.1367 427.442 104.588 433.653 116.897 439.804C137.334 450.024 161.307 455.05 179.629 469.215C185.778 473.982 190.395 479.709 197.539 483.178C208.652 488.577 221.337 491.126 232.752 496.039C242.497 500.256 253.39 507.191 253.405 517.805C253.406 528.691 242.05 535.627 232.072 539.961C225.008 543.048 217.976 545.863 210.917 548.353Z" fill="url(#paint0_linear)"/>
<path d="M101.834 161.427C150.381 89.8829 250.768 61.1565 332.138 88.0556C371.375 101.033 404.259 128.056 434.588 156.109C461.323 180.833 487.259 207.501 505.517 239.286C517.983 260.981 526.905 286.988 533.206 311.267C542.626 347.621 534.071 394.462 487.078 391.03C476.051 390.226 466.513 386.261 456.201 382.793C447.86 379.981 439.686 381.668 431.025 380.294C409.227 376.842 388.228 368.817 368.37 359.417C327.902 340.242 290.925 314.191 249.307 297.388C215.2 283.636 178.777 276.536 142.002 276.471C126.488 276.446 110.175 277.531 96.2972 270.594C62.0915 253.48 77.4735 207.333 90.2482 181.373C93.6326 174.459 97.5042 167.793 101.834 161.427Z" fill="url(#paint1_linear)"/>
<path d="M482.473 172.226C490.465 179.465 521.867 199.227 522.472 176.036C522.615 170.259 519.994 164.649 516.428 160.418C512.348 155.562 507.722 153.015 504.536 147.357C500.638 140.526 496.2 134.105 491.281 128.179C481.224 115.844 469.483 104.446 455.236 99.3683C445.244 95.8108 428.326 96.7055 423.58 109.512C416.665 128.154 446.232 131.57 455.25 138.364C463.807 144.795 468.654 155.844 475.433 164.626C477.575 167.395 479.932 169.939 482.473 172.226Z" fill="url(#paint2_linear)"/>
<path d="M334.678 149.551C351.607 159.518 364.306 174.437 379.741 186.453C405.438 206.454 440.661 210.546 470.13 224.455C500.178 238.647 522.868 260.703 533.126 292.491C546.379 333.522 547.639 382.317 536.379 424.5C523.979 470.933 494.859 501.776 452.282 522.345C409.73 542.902 362.591 552.495 315.576 554.474C311.039 554.669 306.51 554.774 301.963 554.803C199.827 555.396 63.8782 519.446 29.1052 409.726C28.7865 408.723 28.481 407.721 28.1747 406.705C24.5916 394.481 22.4848 381.872 21.8994 369.147C19.7122 324.036 27.6075 274.244 43.4231 231.955C54.0605 203.484 76.9665 179.411 101.103 162.258C135.015 138.161 176.393 132.011 217.575 129.119C248.071 126.98 282.369 126.198 311.207 137.863C319.312 141.167 327.157 145.074 334.678 149.551Z" fill="url(#paint3_linear)"/>
<path d="M405.811 545.07C274.896 583.136 165.801 546.43 127.618 523.319L92.1619 496.129L104.435 475.737L180.802 468.939L307.625 462.142L409.902 482.534L516.27 447.188H527.179C510.815 502.654 439.449 535.554 405.811 545.07Z" fill="#FB4C47"/>
<path d="M137.981 492.897H463.565C463.565 492.897 474.964 305.697 433.485 278.304C392.011 250.917 198.045 256.637 155.055 280.03C112.065 303.428 137.981 492.897 137.981 492.897Z" fill="#FB4C47"/>
<path d="M192.187 238.861C191.717 238.861 191.242 238.709 190.846 238.38C189.952 237.651 169.077 220.079 180.493 184.664C184.487 172.28 188.402 163.512 191.848 155.767C198.065 141.833 202.557 131.757 203.411 110.231C203.456 109.06 204.627 108.183 205.612 108.189C206.783 108.24 207.694 109.224 207.648 110.395C206.766 132.742 201.889 143.666 195.723 157.498C192.317 165.141 188.453 173.802 184.533 185.965C174.038 218.518 192.736 234.437 193.539 235.099C194.439 235.846 194.569 237.181 193.828 238.081C193.409 238.595 192.798 238.861 192.187 238.861Z" fill="#000C3E"/>
<path d="M307.764 27.6495C307.216 42.3472 294.854 53.8089 280.157 53.2601C265.465 52.7114 253.997 40.3502 254.546 25.6581C255.1 10.9604 267.456 -0.506919 282.154 0.0418428C296.846 0.596256 308.313 12.9518 307.764 27.6495Z" fill="#000C3E"/>
<path d="M189.805 228.52C189.805 228.52 197.618 244.632 229.513 250.295C261.415 255.963 286.449 244.422 311.075 253.355C335.701 262.282 371.28 250.645 378.335 240.298C385.384 229.951 383.907 115.362 364.491 96.1443C345.07 76.9321 243.329 60.8936 221.282 83.3757C199.236 105.864 175.82 215.615 189.805 228.52Z" fill="#000C3E"/>
<path d="M373.981 138.114C372.165 186.54 331.438 224.331 283.011 222.515C234.585 220.699 196.794 179.972 198.61 131.54C200.426 83.1136 241.153 45.3284 289.579 47.1444C338.006 48.9547 375.797 89.6874 373.981 138.114Z" fill="#000C3E"/>
<path d="M322.287 211.482C322.287 211.482 327.984 279.816 322.287 287.408C316.59 295.001 280.525 289.309 271.037 287.408C261.544 285.513 257.748 211.482 263.44 211.482C269.137 211.482 321.195 196.247 322.287 211.482Z" fill="#FFCEB0"/>
<path d="M214.651 131.539C214.651 131.539 218.26 238.049 290.267 242.648C362.278 247.242 362.205 97.1764 336.147 82.903C310.084 68.6296 201.339 71.3055 214.651 131.539Z" fill="#FFCEB0"/>
<path d="M288.587 154.338C288.587 154.338 302.34 187.122 298.799 189.295C295.263 191.467 284.904 191.077 282.115 188.667C279.326 186.257 282.964 150.672 288.587 154.338Z" fill="#EE9B68"/>
<path d="M267.021 165.311C266.84 169.045 263.667 171.918 259.933 171.737C256.205 171.556 253.325 168.383 253.506 164.649C253.687 160.921 256.861 158.041 260.595 158.222C264.323 158.403 267.202 161.577 267.021 165.311Z" fill="#41294A"/>
<path d="M325.108 162.123C324.927 165.857 321.753 168.731 318.02 168.55C314.291 168.369 311.412 165.195 311.593 161.461C311.774 157.733 314.948 154.853 318.681 155.034C322.41 155.215 325.289 158.389 325.108 162.123Z" fill="#41294A"/>
<path d="M271.35 74.7371C271.35 74.7371 245.53 87.2228 240.619 110.661C235.703 134.105 238.249 194.123 210.89 191.368C210.89 191.368 157.921 72.5873 271.35 74.7371Z" fill="#000C3E"/>
<path d="M284.96 75.2476C282.618 76.9278 311.583 76.8543 328.142 96.932C344.707 117.004 348.639 167.179 351.196 168.107C353.758 169.04 363.987 105.938 345.827 86.9808C327.673 68.0232 298.288 65.7037 284.96 75.2476Z" fill="#000C3E"/>
<path d="M264.442 232.934C264.442 232.934 292.457 248.865 321.547 233.975C321.547 233.975 323.81 251.858 321.547 255.982C319.284 260.106 273.211 263.053 264.142 242.727C264.142 242.727 261.823 232.051 264.442 232.934Z" fill="#EE9B68"/>
<path d="M344.988 172.385C344.988 172.385 351.885 145.722 363.906 155.209C375.934 164.702 365.055 192.565 353.169 195.093C341.283 197.622 338.42 186.132 344.988 172.385Z" fill="#FFCEB0"/>
<path d="M231.417 168.129C231.417 168.129 226.535 141.025 213.834 149.59C201.133 158.149 209.896 186.753 221.562 190.164C233.227 193.57 236.933 182.329 231.417 168.129Z" fill="#FFCEB0"/>
<path d="M315.647 138.028C315.647 138.028 328.535 131.613 336.149 141.451C342.848 150.095 327.267 142.848 321.44 143.81C315.619 144.771 307.976 144.11 315.647 138.028Z" fill="#41294A"/>
<path d="M265.004 139.27C265.004 139.27 252.094 132.9 244.513 142.766C237.849 151.433 253.401 144.13 259.228 145.069C265.055 146.014 272.698 145.323 265.004 139.27Z" fill="#41294A"/>
<path d="M259.699 150.142C248.571 150.142 239.531 158.86 239.112 169.993C238.909 175.492 240.855 180.748 244.606 184.782C248.351 188.821 253.442 191.157 258.947 191.361L259.739 191.378C270.867 191.378 279.907 182.66 280.32 171.532C280.529 166.033 278.578 160.772 274.833 156.738C271.087 152.699 265.996 150.362 260.491 150.159L259.699 150.142ZM259.739 194.207L258.839 194.19C252.582 193.958 246.789 191.299 242.529 186.711C238.269 182.117 236.052 176.143 236.284 169.88C236.759 157.23 247.044 147.313 259.699 147.313L260.599 147.33C266.856 147.562 272.649 150.221 276.909 154.809C281.163 159.403 283.386 165.377 283.149 171.645C282.679 184.295 272.394 194.207 259.739 194.207Z" fill="#FFFCF6"/>
<path d="M318.199 146.854C307.077 146.854 298.037 155.572 297.618 166.706C297.409 172.205 299.36 177.46 303.106 181.494C306.851 185.533 311.948 187.87 317.447 188.073L318.239 188.09C329.373 188.09 338.407 179.372 338.826 168.239C339.035 162.74 337.083 157.484 333.338 153.451C329.593 149.411 324.496 147.075 318.991 146.871L318.199 146.854ZM318.239 190.919L317.345 190.902C311.082 190.67 305.289 188.011 301.029 183.423C296.769 178.829 294.552 172.855 294.789 166.593C295.265 153.943 305.55 144.026 318.199 144.026L319.099 144.043C325.356 144.274 331.149 146.933 335.409 151.521C339.669 156.115 341.886 162.089 341.655 168.352C341.179 181.002 330.894 190.919 318.239 190.919Z" fill="#FFFCF6"/>
<path d="M238.39 166.648C238.214 166.648 238.039 166.614 237.869 166.546L229.293 163.163C228.568 162.875 228.212 162.054 228.495 161.33C228.783 160.601 229.609 160.25 230.333 160.533L238.91 163.921C239.634 164.204 239.991 165.03 239.702 165.754C239.487 166.309 238.955 166.648 238.39 166.648Z" fill="#FFFCF6"/>
<path d="M339.43 162.907C338.819 162.907 338.247 162.505 338.072 161.878C337.857 161.136 338.293 160.35 339.045 160.135L350.954 156.724C351.678 156.492 352.487 156.939 352.702 157.697C352.917 158.444 352.481 159.23 351.729 159.445L339.815 162.851C339.69 162.89 339.554 162.907 339.43 162.907Z" fill="#FFFCF6"/>
<path d="M280.086 69.1446C280.086 69.1446 283.333 126.877 299.247 132.116C315.161 137.36 354.287 135.923 356.177 129.61C358.066 123.291 325.836 72.4767 302.709 64.3302C262.152 50.0398 227.145 115.981 231.772 131.867C236.4 147.759 271.249 133.853 278.683 131.811C286.122 129.768 278.598 80.5554 280.086 69.1446Z" fill="#000C3E"/>
<g opacity="0.210007">
<g opacity="0.210007">
<path opacity="0.210007" d="M240.459 189.867C240.459 189.867 277.317 169.749 293.208 173.064C309.094 176.38 337.092 177.5 338.223 183.253C339.36 189.007 302.645 185.556 291.307 186.387C279.964 187.219 236.222 199.213 240.459 189.867Z" fill="#DB5C5D"/>
</g>
</g>
<path d="M261.174 177.084C260.319 177.084 259.51 176.564 259.188 175.715C258.775 174.618 259.324 173.396 260.421 172.977C263.714 171.732 264.444 170.72 264.449 170.714C264.857 169.617 266.016 169.17 267.114 169.588C268.217 169.99 268.715 171.336 268.308 172.44C267.974 173.345 266.701 175.132 261.926 176.948C261.677 177.039 261.423 177.084 261.174 177.084Z" fill="#EE9B68"/>
<path d="M316.87 175.554C315.62 175.554 313.651 175.141 310.641 173.585C309.6 173.054 309.193 171.769 309.73 170.728C310.268 169.693 311.546 169.28 312.587 169.818C315.733 171.441 316.972 171.311 316.966 171.3C318.058 170.893 319.155 171.441 319.585 172.533C320.015 173.619 319.348 174.898 318.262 175.328C317.956 175.447 317.509 175.554 316.87 175.554Z" fill="#EE9B68"/>
<path d="M281.744 171.758C281.014 171.758 280.392 171.192 280.335 170.457C280.279 169.676 280.856 168.997 281.636 168.935L296.147 167.804C296.951 167.679 297.613 168.324 297.669 169.099C297.731 169.88 297.149 170.559 296.368 170.621L281.857 171.752C281.817 171.758 281.784 171.758 281.744 171.758Z" fill="#FFFCF6"/>
<path d="M264.517 53.2979C264.189 53.2979 263.855 53.2187 263.55 53.0603C255.76 49.0436 251.121 43.4429 249.752 36.4165C246.742 20.9947 260.755 4.46402 261.349 3.76817C262.118 2.87998 263.459 2.77248 264.342 3.54188C265.23 4.30562 265.337 5.64074 264.574 6.52894C264.438 6.68735 251.296 22.2167 253.915 35.6132C255.03 41.2988 258.922 45.8982 265.49 49.2925C266.531 49.83 266.944 51.1085 266.401 52.1495C266.028 52.8793 265.287 53.2979 264.517 53.2979Z" fill="#000C3E"/>
<path d="M295.231 58.0385C294.625 58.0385 294.02 57.7782 293.601 57.2747C292.849 56.3809 292.968 55.0458 293.867 54.2933C294.026 54.1576 309.538 40.993 309.153 27.3532C308.995 21.5658 305.906 16.3837 299.983 11.9597C299.044 11.2582 298.851 9.92873 299.553 8.98962C300.249 8.05616 301.595 7.86946 302.523 8.55966C309.544 13.804 313.204 20.0893 313.396 27.2458C313.832 42.9504 297.29 56.9579 296.588 57.5463C296.192 57.8801 295.706 58.0385 295.231 58.0385Z" fill="#000C3E"/>
<path d="M371.272 237.073C370.638 237.073 370.01 236.79 369.592 236.252C368.873 235.324 369.037 233.995 369.965 233.276C370.695 232.705 387.87 219.003 383.378 195.921C381.619 186.887 378.389 176.879 374.972 166.294C369.009 147.828 362.848 128.729 362.741 110.292C362.735 109.121 363.68 108.165 364.851 108.159H364.862C366.027 108.159 366.978 109.104 366.983 110.27C367.085 128.051 373.144 146.827 379.005 164.993C382.468 175.702 385.737 185.823 387.542 195.112C392.543 220.808 373.382 235.998 372.567 236.631C372.177 236.931 371.724 237.073 371.272 237.073Z" fill="#000C3E"/>
<path d="M378.342 140.306C378.257 140.306 378.172 140.3 378.082 140.289C376.922 140.148 376.096 139.09 376.238 137.924C379.1 114.599 374.648 95.5171 363 81.2154C344.234 58.1562 312.893 55.3332 312.576 55.3162C311.405 55.2144 310.539 54.1904 310.635 53.025C310.732 51.8539 311.75 51.0054 312.927 51.0846C314.279 51.1921 346.395 54.0943 366.292 78.5338C378.693 93.7633 383.456 113.926 380.447 138.445C380.317 139.514 379.4 140.306 378.342 140.306Z" fill="#000C3E"/>
<path d="M292.189 222.769C289.971 222.769 287.555 222.701 285.377 222.622C283.821 222.559 282.605 221.241 282.662 219.68C282.724 218.118 284.099 217.044 285.598 216.964C290.322 217.151 296.126 217.179 297.269 216.891C298.751 216.37 300.318 217.134 300.844 218.605C301.376 220.07 300.567 221.711 299.102 222.237C298.004 222.639 295.294 222.769 292.189 222.769Z" fill="#DB5C5D"/>
<path d="M224.084 183.538C223.88 183.538 223.671 183.509 223.467 183.442C222.341 183.102 221.713 181.92 222.053 180.8C225.917 168.122 216.684 159.703 216.588 159.619C215.717 158.844 215.638 157.497 216.418 156.62C217.193 155.743 218.545 155.675 219.411 156.451C219.881 156.864 230.76 166.792 226.115 182.033C225.838 182.949 224.995 183.538 224.084 183.538Z" fill="#EE9B68"/>
<path d="M349.881 189.753C349.818 189.753 349.762 189.753 349.694 189.747C348.528 189.64 347.663 188.616 347.765 187.445C349.168 171.542 357.06 163.158 357.393 162.807C358.202 161.97 359.543 161.947 360.386 162.751C361.235 163.554 361.263 164.895 360.46 165.743C360.386 165.823 353.258 173.488 351.996 187.818C351.895 188.927 350.967 189.753 349.881 189.753Z" fill="#EE9B68"/>
<path d="M232.052 169.885C232.052 169.885 250.489 185.284 251.938 187.626C253.386 189.969 252.809 219.947 249.912 219.579C247.016 219.217 229.45 190.659 227.526 190.715C225.603 190.772 226.457 193.855 226.457 193.855C226.457 193.855 241.517 218.73 250.563 225.745C259.609 232.766 316.08 233.089 327.581 226.588C339.088 220.082 348.836 195.739 347.959 195.236C347.077 194.726 344.887 192.741 344.519 193.578C344.208 194.291 328.594 222.113 326.642 221.242C324.685 220.371 326.857 189.482 326.642 186.563C326.427 183.638 349.255 161.495 349.255 161.495L350.901 158.718L348.593 158.084C348.593 158.084 326.212 180.425 320.606 180.295C315 180.164 256.22 184.413 253.499 183.429C250.778 182.444 232.59 162.734 230.321 163.543C228.047 164.347 231.419 168.126 232.052 169.885Z" fill="#FFFCF6"/>
<path d="M224.686 284.325C224.686 284.325 272.858 341.916 310.009 326.505C347.155 311.095 381.959 269.321 363.284 263.777C344.609 258.239 195.483 261.152 224.686 284.325Z" fill="#FFCEB0"/>
<path d="M436.202 250.204C436.202 250.204 429.673 199.367 427.484 196.074C425.295 192.782 408.736 217.781 413.205 231.953C417.68 246.125 355.794 246.475 360.62 267.175C365.446 287.87 362.487 315.84 388.154 317.271C413.816 318.708 443.104 311.744 449.106 302.211C455.114 292.684 436.202 250.204 436.202 250.204Z" fill="url(#paint4_linear)"/>
<path d="M474.775 295.981C474.775 295.981 546.337 379.576 532.374 434.556C518.411 489.537 450.337 498.436 436.374 491.318C422.411 484.2 427.645 248.349 474.775 295.981Z" fill="#D9423D"/>
<path d="M143.66 285.524C143.66 285.524 56.8486 378.768 62.4832 461.998C67.1335 530.712 172.603 520.257 185.581 513.768C198.564 507.279 187.464 242.098 143.66 285.524Z" fill="#D9423D"/>
<path d="M441.156 262.289C441.156 262.289 528.296 434.65 504.36 464.158C480.423 493.667 437.875 497.039 420.897 472.565C410.98 458.28 424.829 332.06 410.188 316.587C395.547 301.115 436.511 254.17 441.156 262.289Z" fill="#FFCEB0"/>
<path d="M307.09 439.983C307.09 439.983 366.339 462.335 375.815 481.173C385.291 500.012 350.131 477.038 341.854 473.621C333.583 470.21 363.403 493.959 364.308 499.452C365.207 504.94 331.128 483.261 331.128 483.261C331.128 483.261 354.804 508.306 352.473 513.528C350.142 518.755 323.066 497.257 323.066 497.257C323.066 497.257 337.113 519.502 332.508 522.658C327.903 525.815 297.325 488.924 272.116 490.434C246.907 491.951 151.446 547.324 115.132 491.69C78.8118 436.056 109.457 409.575 179.783 410.35C250.109 411.13 287.561 431.791 307.09 439.983Z" fill="#FFCEB0"/>
<path d="M289.343 9.20875C288.71 9.20875 288.023 9.28229 287.278 9.42937C285.462 9.79388 284.285 10.6764 283.578 12.2079C280.429 19.0248 287.07 35.2613 291.815 44.8536C294.747 34.2126 298.261 16.4253 293.295 10.8202C292.339 9.74271 291.038 9.20875 289.343 9.20875ZM292.368 52.86C291.578 52.86 290.84 52.4347 290.449 51.7313C288.771 48.7225 274.216 22.0016 279.588 10.3662C280.88 7.56847 283.243 5.75233 286.418 5.11924C291.828 4.04171 294.935 6.0401 296.585 7.9042C305.212 17.6435 295.585 47.9295 294.459 51.3508C294.184 52.1789 293.449 52.7672 292.579 52.8504C292.509 52.8568 292.438 52.86 292.368 52.86Z" fill="#FFD310"/>
<path d="M318.974 20.0213C318.766 20.0213 318.555 20.0341 318.344 20.0661C310.917 21.0541 301.941 36.8078 297.196 46.7742C307.061 42.6207 322.705 34.6879 324.784 27.4745C325.251 25.8502 324.937 24.4146 323.802 22.9502C322.274 20.9838 320.691 20.0213 318.974 20.0213ZM292.979 52.9995C292.388 52.9995 291.809 52.7629 291.39 52.3217C290.786 51.6886 290.613 50.7613 290.949 49.9556C292.336 46.6335 304.864 17.4282 317.762 15.708C320.234 15.3787 323.889 15.8967 327.271 20.2515C329.26 22.8095 329.861 25.7287 329.008 28.6895C325.458 41.0028 296.966 51.6886 293.73 52.8684C293.484 52.958 293.232 52.9995 292.979 52.9995Z" fill="#FFD310"/>
<path d="M251.713 45.2354C262.39 52.0992 286.795 57.4377 305.861 45.2354" stroke="#FFD310" stroke-width="3.87"/>
<defs>
<linearGradient id="paint0_linear" x1="40.9998" y1="428.023" x2="129.957" y2="582.821" gradientUnits="userSpaceOnUse">
<stop stop-color="#FFC5C6"/>
<stop offset="1" stop-color="#FFF6F6"/>
</linearGradient>
<linearGradient id="paint1_linear" x1="540" y1="252.023" x2="181.277" y2="18.7176" gradientUnits="userSpaceOnUse">
<stop stop-color="white"/>
<stop offset="1" stop-color="#FFD7D7"/>
</linearGradient>
<linearGradient id="paint2_linear" x1="523.287" y1="175.629" x2="405.22" y2="125.2" gradientUnits="userSpaceOnUse">
<stop stop-color="#FFBEBF"/>
<stop offset="1" stop-color="#FFFBFC"/>
</linearGradient>
<linearGradient id="paint3_linear" x1="555" y1="429.023" x2="42.9999" y2="225.023" gradientUnits="userSpaceOnUse">
<stop stop-color="#FFD7D7"/>
<stop offset="1" stop-color="#FFF8F8"/>
</linearGradient>
<linearGradient id="paint4_linear" x1="450" y1="329.002" x2="405.318" y2="195.779" gradientUnits="userSpaceOnUse">
<stop stop-color="#FFC4A0"/>
<stop offset="1" stop-color="#FFCEB0"/>
</linearGradient>
</defs>
</svg>
