<svg width="565" height="585" viewBox="0 0 565 585" fill="none" xmlns="http://www.w3.org/2000/svg">
<path d="M214.42 557.803C184.293 568.478 153.873 573.41 121.426 567.245C85.2602 560.371 53.8911 529.421 36.1666 498.556C29.5809 487.092 24.338 474.281 25.0231 461.081C26.6172 430.585 55.4269 427.178 79.8819 432.11C93.6672 434.884 106.325 441.198 118.839 447.452C139.616 457.841 163.987 462.95 182.613 477.351C188.864 482.197 193.558 488.02 200.82 491.545C212.118 497.034 225.014 499.626 236.618 504.621C246.526 508.907 257.6 515.958 257.615 526.748C257.616 537.815 246.071 544.867 235.927 549.272C228.746 552.411 221.598 555.273 214.42 557.803Z" fill="url(#paint0_linear)"/>
<path d="M103.525 164.449C152.879 91.7162 254.933 62.5125 337.655 89.8585C377.544 103.052 410.974 130.524 441.808 159.042C468.987 184.178 495.354 211.288 513.915 243.601C526.588 265.657 535.659 292.096 542.064 316.779C551.641 353.737 542.944 401.356 495.169 397.867C483.96 397.05 474.263 393.019 463.78 389.493C455.3 386.634 446.99 388.349 438.186 386.952C416.026 383.443 394.677 375.284 374.49 365.728C333.349 346.235 295.758 319.751 253.448 302.669C218.775 288.689 181.747 281.471 144.361 281.404C128.589 281.378 112.005 282.482 97.8963 275.43C63.1223 258.032 78.7598 211.117 91.7468 184.727C95.1875 177.697 99.1234 170.921 103.525 164.449Z" fill="url(#paint1_linear)"/>
<path d="M490.489 175.427C498.614 182.787 530.538 202.877 531.152 179.301C531.297 173.428 528.634 167.725 525.008 163.424C520.86 158.487 516.158 155.897 512.919 150.145C508.955 143.2 504.444 136.673 499.443 130.648C489.219 118.108 477.283 106.522 462.8 101.359C452.641 97.7427 435.443 98.6522 430.617 111.671C423.587 130.624 453.646 134.096 462.813 141.003C471.513 147.54 476.44 158.774 483.332 167.701C485.51 170.516 487.906 173.103 490.489 175.427Z" fill="url(#paint2_linear)"/>
<path d="M340.238 152.376C357.448 162.509 370.359 177.676 386.05 189.891C412.174 210.224 447.982 214.384 477.94 228.525C508.488 242.952 531.554 265.374 541.984 297.691C555.457 339.404 556.737 389.009 545.29 431.893C532.684 479.097 503.08 510.453 459.796 531.364C416.537 552.262 368.615 562.014 320.819 564.027C316.207 564.225 311.602 564.331 306.979 564.361C203.147 564.964 64.9392 528.416 29.5885 416.874C29.2645 415.854 28.954 414.836 28.6425 413.802C24.9999 401.375 22.8582 388.556 22.263 375.62C20.0395 329.76 28.066 279.141 44.1443 236.149C54.9585 207.205 78.245 182.732 102.783 165.294C137.258 140.796 179.323 134.544 221.19 131.605C252.192 129.43 287.06 128.635 316.377 140.493C324.617 143.853 332.593 147.825 340.238 152.376Z" fill="url(#paint3_linear)"/>
<path d="M412.553 554.466C279.463 593.164 168.555 555.848 129.738 532.353L93.6926 504.712L106.17 483.981L183.805 477.07L312.736 470.16L416.712 490.891L524.847 454.957H535.938C519.302 511.346 446.749 544.792 412.553 554.466Z" fill="#FB4C47"/>
<path d="M138.119 479.702H454.999C454.999 479.702 466.094 297.506 425.723 270.845C385.358 244.19 196.577 249.757 154.736 272.525C112.896 295.298 138.119 479.702 138.119 479.702Z" fill="#FB4C47"/>
<path d="M190.878 232.456C190.415 232.456 189.953 232.308 189.573 231.988C188.697 231.278 168.38 214.176 179.502 179.708C183.384 167.655 187.189 159.121 190.547 151.583C196.598 138.016 200.97 128.215 201.796 107.265C201.846 106.125 202.732 105.272 203.944 105.277C205.083 105.327 205.97 106.285 205.926 107.424C205.061 129.173 200.326 139.806 194.324 153.262C191.004 160.707 187.249 169.136 183.422 180.975C173.165 212.789 191.99 228.641 192.183 228.795C193.064 229.516 193.201 230.815 192.474 231.696C192.067 232.198 191.472 232.456 190.878 232.456Z" fill="#000C3E"/>
<path d="M303.359 26.8892C302.825 41.194 290.794 52.3493 276.489 51.8152C262.19 51.2811 251.029 39.2504 251.563 24.9511C252.103 10.6463 264.128 -0.514498 278.433 0.0195903C292.732 0.559187 303.893 12.5844 303.359 26.8892Z" fill="#000C3E"/>
<path d="M188.556 222.39C188.556 222.39 196.16 238.071 227.203 243.583C258.252 249.1 282.616 237.867 306.584 246.562C330.552 255.25 365.18 243.924 372.046 233.854C378.907 223.783 377.469 112.257 358.573 93.5533C339.67 74.8547 240.649 59.245 219.192 81.1261C197.735 103.013 174.945 209.831 188.556 222.39Z" fill="#000C3E"/>
<path d="M367.807 134.401C366.04 181.533 326.402 218.314 279.27 216.546C232.138 214.779 195.357 175.141 197.125 128.003C198.892 80.8711 238.53 44.096 285.662 45.8635C332.794 47.6254 369.575 87.2691 367.807 134.401Z" fill="#000C3E"/>
<path d="M317.497 205.808C317.497 205.808 323.041 272.316 317.497 279.705C311.952 287.094 276.851 281.555 267.617 279.705C258.378 277.861 254.683 205.808 260.222 205.808C265.767 205.808 316.434 190.98 317.497 205.808Z" fill="#FFCEB0"/>
<path d="M212.738 128.001C212.738 128.001 216.251 231.664 286.332 236.14C356.419 240.611 356.348 94.5573 330.987 80.6655C305.62 66.7737 199.782 69.378 212.738 128.001Z" fill="#FFCEB0"/>
<path d="M284.697 150.191C284.697 150.191 298.082 182.099 294.636 184.213C291.194 186.327 281.113 185.947 278.398 183.602C275.684 181.256 279.224 146.623 284.697 150.191Z" fill="#EE9B68"/>
<path d="M263.709 171.498C263.533 175.132 260.444 177.929 256.81 177.753C253.182 177.577 250.379 174.488 250.555 170.854C250.732 167.225 253.821 164.423 257.455 164.599C261.083 164.775 263.886 167.864 263.709 171.498Z" fill="#41294A"/>
<path d="M320.244 168.397C320.068 172.031 316.979 174.828 313.345 174.652C309.716 174.476 306.914 171.387 307.09 167.753C307.266 164.125 310.355 161.322 313.989 161.498C317.618 161.674 320.42 164.763 320.244 168.397Z" fill="#41294A"/>
<path d="M267.922 72.7175C267.922 72.7175 242.792 84.8694 238.013 107.681C233.228 130.498 235.706 188.912 209.078 186.231C209.078 186.231 157.525 70.6252 267.922 72.7175Z" fill="#000C3E"/>
<path d="M281.167 73.2144C278.887 74.8497 307.078 74.7782 323.195 94.3192C339.316 113.855 343.143 162.688 345.632 163.591C348.126 164.5 358.081 103.085 340.407 84.634C322.738 66.1832 294.139 63.9257 281.167 73.2144Z" fill="#000C3E"/>
<path d="M261.198 226.687C261.198 226.687 288.464 242.192 316.776 227.7C316.776 227.7 318.978 245.105 316.776 249.118C314.573 253.132 269.732 256.001 260.906 236.218C260.906 236.218 258.648 225.828 261.198 226.687Z" fill="#EE9B68"/>
<path d="M339.59 167.757C339.59 167.757 346.302 141.807 358.002 151.04C369.708 160.279 359.12 187.397 347.552 189.858C335.984 192.319 333.198 181.136 339.59 167.757Z" fill="#FFCEB0"/>
<path d="M229.053 163.614C229.053 163.614 224.301 137.234 211.94 145.571C199.579 153.901 208.108 181.74 219.461 185.06C230.815 188.375 234.421 177.434 229.053 163.614Z" fill="#FFCEB0"/>
<path d="M311.035 134.318C311.035 134.318 323.578 128.074 330.989 137.649C337.508 146.062 322.345 139.009 316.673 139.945C311.008 140.881 303.569 140.237 311.035 134.318Z" fill="#41294A"/>
<path d="M261.743 135.526C261.743 135.526 249.179 129.326 241.8 138.929C235.314 147.364 250.45 140.256 256.122 141.17C261.793 142.089 269.232 141.417 261.743 135.526Z" fill="#41294A"/>
<path d="M256.578 146.105C245.753 146.105 236.955 154.59 236.542 165.426C236.344 170.777 238.243 175.893 241.888 179.824C245.533 183.75 250.489 186.024 255.846 186.222L256.617 186.238C267.447 186.238 276.246 177.754 276.654 166.923C276.857 161.571 274.958 156.451 271.313 152.525C267.668 148.593 262.707 146.319 257.349 146.121L256.578 146.105ZM256.617 188.992L255.741 188.975C249.652 188.749 244.014 186.161 239.867 181.696C235.721 177.225 233.563 171.411 233.789 165.315C234.257 153.004 244.267 143.352 256.578 143.352L257.454 143.368C263.544 143.594 269.182 146.182 273.328 150.647C277.474 155.124 279.632 160.933 279.407 167.033C278.944 179.345 268.934 188.992 256.617 188.992Z" fill="#FFFCF6"/>
<path d="M313.522 142.907C302.698 142.907 293.899 151.392 293.486 162.228C293.073 173.284 301.734 182.617 312.79 183.024L313.561 183.041C324.386 183.041 333.185 174.556 333.598 163.72C333.796 158.368 331.896 153.253 328.251 149.322C324.606 145.396 319.651 143.122 314.293 142.924L313.522 142.907ZM313.561 185.794L312.686 185.777C300.11 185.309 290.265 174.694 290.733 162.118C291.201 149.806 301.211 140.154 313.522 140.154L314.398 140.171C320.488 140.396 326.126 142.984 330.272 147.45C334.418 151.921 336.576 157.735 336.351 163.83C335.883 176.142 325.873 185.794 313.561 185.794Z" fill="#FFFCF6"/>
<path d="M235.84 162.173C235.675 162.173 235.499 162.14 235.334 162.074L226.992 158.781C226.282 158.501 225.935 157.702 226.216 156.998C226.496 156.287 227.284 155.946 228 156.221L236.347 159.519C237.057 159.795 237.398 160.598 237.118 161.303C236.903 161.843 236.391 162.173 235.84 162.173Z" fill="#FFFCF6"/>
<path d="M334.183 158.531C333.588 158.531 333.032 158.141 332.861 157.529C332.652 156.803 333.076 156.043 333.808 155.834L345.404 152.513C346.147 152.31 346.902 152.728 347.105 153.46C347.315 154.193 346.891 154.953 346.158 155.162L334.557 158.476C334.436 158.515 334.304 158.531 334.183 158.531Z" fill="#FFFCF6"/>
<path d="M276.423 67.2762C276.423 67.2762 279.584 123.466 295.072 128.564C310.561 133.668 348.641 132.27 350.48 126.125C352.319 119.975 320.951 70.5193 298.442 62.5905C258.969 48.6822 224.897 112.861 229.401 128.322C233.905 143.789 267.823 130.255 275.058 128.267C282.298 126.279 274.975 78.3819 276.423 67.2762Z" fill="#000C3E"/>
<path d="M278.038 167.147C277.322 167.147 276.722 166.596 276.667 165.88C276.607 165.12 277.174 164.46 277.928 164.399L292.057 163.298C292.883 163.166 293.483 163.81 293.532 164.559C293.593 165.319 293.031 165.979 292.271 166.04L278.148 167.141C278.11 167.147 278.071 167.147 278.038 167.147Z" fill="#FFFCF6"/>
<path d="M261.274 51.8524C260.95 51.8524 260.63 51.7753 260.327 51.6211C252.751 47.7118 248.231 42.2608 246.898 35.4222C243.974 20.4127 257.607 4.32395 258.191 3.64671C258.94 2.77124 260.234 2.67213 261.104 3.42647C261.968 4.16978 262.067 5.46922 261.324 6.33367C261.192 6.48784 248.407 21.602 250.956 34.6404C252.035 40.174 255.829 44.6504 262.221 47.9541C263.235 48.4771 263.631 49.7215 263.108 50.7346C262.745 51.4449 262.023 51.8524 261.274 51.8524Z" fill="#000C3E"/>
<path d="M291.159 56.4653C290.575 56.4653 289.986 56.212 289.578 55.722C288.846 54.852 288.962 53.5526 289.837 52.8203C289.986 52.6881 305.089 39.8755 304.715 26.5948C304.56 20.9621 301.554 15.9241 295.789 11.6183C294.875 10.9356 294.688 9.64163 295.371 8.72763C296.059 7.80811 297.342 7.63192 298.261 8.30916C305.089 13.4133 308.657 19.5305 308.844 26.4957C309.263 41.7806 293.168 55.4136 292.48 55.9862C292.095 56.3111 291.627 56.4653 291.159 56.4653Z" fill="#41294A"/>
<path d="M365.168 230.714C364.551 230.714 363.94 230.438 363.532 229.915C362.833 229.012 362.993 227.718 363.896 227.019C364.606 226.463 381.323 213.127 376.951 190.662C375.238 181.864 372.1 172.124 368.769 161.811C362.971 143.844 356.975 125.261 356.87 107.323C356.865 106.183 357.784 105.252 358.924 105.247H358.935C360.069 105.247 360.994 106.166 361 107.301C361.099 124.601 366.996 142.875 372.695 160.544C376.064 170.978 379.247 180.829 381.003 189.875C385.871 214.884 367.222 229.667 366.429 230.284C366.049 230.576 365.608 230.714 365.168 230.714Z" fill="#000C3E"/>
<path d="M372.051 136.535C371.969 136.535 371.886 136.529 371.798 136.518C370.669 136.381 369.866 135.351 370.003 134.217C372.789 111.532 368.467 92.9708 357.146 79.0515C338.91 56.6252 308.352 53.8337 308.043 53.8171C306.909 53.718 306.067 52.7214 306.155 51.5817C306.254 50.4529 307.272 49.5995 308.385 49.6986C309.706 49.8032 340.959 52.6278 360.323 76.4141C372.393 91.2364 377.029 110.86 374.1 134.723C373.973 135.764 373.081 136.535 372.051 136.535Z" fill="#000C3E"/>
<path d="M288.245 216.103C285.921 216.103 283.454 216.026 281.604 215.96C280.465 215.911 279.578 214.953 279.622 213.813C279.661 212.673 280.536 211.754 281.764 211.831C286.516 212.018 292.275 212.04 293.321 211.737C294.395 211.434 295.557 212.012 295.904 213.075C296.245 214.132 295.738 215.255 294.698 215.63C293.696 215.988 291.08 216.103 288.245 216.103Z" fill="#EE9B68"/>
<path d="M221.921 178.61C221.722 178.61 221.519 178.583 221.32 178.517C220.225 178.186 219.613 177.035 219.949 175.945C223.704 163.606 214.713 155.413 214.625 155.331C213.777 154.576 213.7 153.266 214.46 152.412C215.214 151.559 216.519 151.482 217.378 152.247C217.829 152.649 228.418 162.312 223.892 177.146C223.627 178.038 222.807 178.61 221.921 178.61Z" fill="#EE9B68"/>
<path d="M344.354 184.661C344.293 184.661 344.238 184.661 344.172 184.655C343.038 184.551 342.195 183.554 342.294 182.414C343.654 166.937 351.335 158.777 351.66 158.435C352.453 157.62 353.747 157.598 354.573 158.38C355.399 159.162 355.426 160.467 354.644 161.293C354.573 161.37 347.635 168.831 346.413 182.778C346.314 183.851 345.411 184.661 344.354 184.661Z" fill="#EE9B68"/>
<path d="M224.043 276.782C224.043 276.782 270.927 332.834 307.086 317.835C343.238 302.836 377.112 262.18 358.936 256.784C340.761 251.393 195.621 254.229 224.043 276.782Z" fill="#FFCEB0"/>
<path d="M347.872 350.852C347.872 350.852 320.551 326.317 291.985 340.186C263.42 354.051 272.114 382.853 246.032 377.518C219.949 372.182 172.691 380.243 183.934 408.451C195.177 436.658 123.257 458.727 150.578 494.995C177.899 531.258 251.642 503.381 274.3 510.853C296.952 518.319 350.355 521.518 356.566 500.182C362.777 478.851 402.52 475.652 396.309 447.918C390.098 420.184 383.887 381.785 347.872 350.852Z" fill="white"/>
<path d="M257.621 415.382C257.621 415.382 285.515 448.876 285.443 481.114C285.399 501.641 270.291 467.046 265.104 460.042C259.923 453.044 276.276 483.195 270.858 492.847C268.209 497.572 251.322 462.696 251.322 462.696C251.322 462.696 258.491 495.463 253.921 498.645C249.357 501.833 237.574 470.322 237.574 470.322C237.574 470.322 238.124 495.92 232.695 496.239C227.272 496.558 229.221 470.25 207.444 458.858C185.662 447.466 86.4486 526.313 84.092 461.694C81.7354 397.075 110.846 374.687 178.279 386.421C231.495 395.682 239.892 401.551 257.621 415.382Z" fill="#FFC6A6"/>
<path d="M319.658 415.382C319.658 415.382 291.764 448.876 291.835 481.114C291.879 501.641 306.988 467.046 312.175 460.042C317.356 453.044 301.003 483.195 306.421 492.847C309.069 497.572 325.956 462.696 325.956 462.696C325.956 462.696 318.788 495.463 323.358 498.645C327.922 501.833 339.705 470.322 339.705 470.322C339.705 470.322 339.155 495.92 344.584 496.239C350.007 496.558 348.058 470.25 369.834 458.858C391.616 447.466 503.417 534.06 505.774 469.441C508.125 404.822 466.433 374.687 399 386.421C345.784 395.682 337.387 401.551 319.658 415.382Z" fill="#FFC6A6"/>
<path d="M350.706 471.704C350.706 471.704 351.301 415.014 382.284 415.383C413.266 415.757 427.995 443.447 398.835 459.778C369.675 476.115 349.886 482.772 350.706 471.704Z" fill="white"/>
<path d="M374.084 436.402C374.084 436.402 379.034 447.927 390.723 449.083C402.407 450.239 428.974 449.083 431.287 465.832C433.594 482.582 419.707 505.68 402.683 503.373C385.663 501.06 368.187 497.586 353.833 507.205C339.478 516.824 353.844 429.498 374.084 436.402Z" fill="white"/>
<path d="M403.564 346.582C403.564 354.235 397.358 360.44 389.705 360.44C382.046 360.44 375.841 354.235 375.841 346.582C375.841 338.928 382.046 332.723 389.705 332.723C397.358 332.723 403.564 338.928 403.564 346.582Z" fill="white"/>
<path d="M242.859 346.582C242.859 354.235 236.653 360.44 229 360.44C221.341 360.44 215.136 354.235 215.136 346.582C215.136 338.928 221.341 332.723 229 332.723C236.653 332.723 242.859 338.928 242.859 346.582Z" fill="white"/>
<path d="M286.959 202.746C276.377 202.746 267.066 195.429 266.636 195.077C265.739 194.372 265.596 193.072 266.306 192.18C267.011 191.294 268.31 191.14 269.202 191.85C269.312 191.933 279.779 200.12 289.966 198.364C294.877 197.499 299.012 194.388 302.261 189.113C302.861 188.139 304.144 187.831 305.102 188.436C306.076 189.036 306.374 190.308 305.779 191.277C301.881 197.609 296.793 201.364 290.659 202.433C289.415 202.647 288.182 202.746 286.959 202.746Z" fill="#EE9B68"/>
<path d="M203.278 261.039C203.278 261.039 164.124 316.194 162.982 348.607C161.84 381.02 126.798 394.69 136.729 441.39C140.645 459.779 151.647 485.84 141.098 496.122C113.616 522.909 87.086 503.497 82.5072 496.122C49.403 442.767 89.4828 316.613 124.358 288.541C150.665 261.039 203.278 261.039 203.278 261.039Z" fill="#D9423D"/>
<path d="M385.031 258.649C385.031 258.649 428.567 314.557 429.767 346.007C430.967 377.458 467.791 390.722 457.355 436.035C453.24 453.877 434.093 480.012 454.042 489.141C477.655 499.944 515.34 492.997 520.151 485.842C567.981 430.837 504.187 319.368 467.538 292.13C435.253 265.823 385.031 258.649 385.031 258.649Z" fill="#D9423D"/>
<path d="M288.116 8.71796C287.472 8.71796 286.773 8.79273 286.016 8.94225C284.17 9.31282 282.973 10.21 282.255 11.767C279.053 18.6971 285.805 35.2034 290.628 44.9551C293.609 34.1372 297.182 16.0544 292.133 10.3562C291.162 9.26081 289.839 8.71796 288.116 8.71796ZM291.191 53.0944C290.388 53.0944 289.637 52.6621 289.24 51.947C287.534 48.8882 272.737 21.7234 278.198 9.89466C279.512 7.05043 281.914 5.20412 285.142 4.56052C290.641 3.46509 293.801 5.49668 295.478 7.39174C304.248 17.2929 294.461 48.0821 293.317 51.5602C293.037 52.4021 292.289 53.0002 291.405 53.0847C291.334 53.0912 291.262 53.0944 291.191 53.0944Z" fill="#FFD310"/>
<path d="M318.24 19.7093C318.029 19.7093 317.814 19.7223 317.6 19.7548C310.049 20.7592 300.924 36.7746 296.101 46.9066C306.129 42.6841 322.034 34.6195 324.146 27.2863C324.621 25.635 324.302 24.1755 323.148 22.6868C321.595 20.6877 319.986 19.7093 318.24 19.7093ZM291.813 53.2354C291.212 53.2354 290.624 52.9949 290.198 52.5463C289.583 51.9027 289.408 50.96 289.749 50.1409C291.16 46.7636 303.895 17.0731 317.008 15.3243C319.521 14.9895 323.236 15.5161 326.675 19.9433C328.697 22.5438 329.308 25.5115 328.44 28.5215C324.832 41.0394 295.867 51.9027 292.577 53.1021C292.327 53.1932 292.07 53.2354 291.813 53.2354Z" fill="#FFD310"/>
<path d="M249.861 45.3427C260.715 52.3206 285.525 57.7478 304.908 45.3427" stroke="#FFD310" stroke-width="3.87"/>
<defs>
<linearGradient id="paint0_linear" x1="22.3488" y1="465.29" x2="53.6068" y2="573.825" gradientUnits="userSpaceOnUse">
<stop stop-color="#FFCECE"/>
<stop offset="1" stop-color="#FFF2F2"/>
</linearGradient>
<linearGradient id="paint1_linear" x1="84.4993" y1="97.5013" x2="494.884" y2="408.94" gradientUnits="userSpaceOnUse">
<stop stop-color="#FFDADA"/>
<stop offset="1" stop-color="white"/>
</linearGradient>
<linearGradient id="paint2_linear" x1="531.981" y1="178.887" x2="411.952" y2="127.621" gradientUnits="userSpaceOnUse">
<stop stop-color="#FFDFDF"/>
<stop offset="1" stop-color="#FFF5F5"/>
</linearGradient>
<linearGradient id="paint3_linear" x1="504.888" y1="516.966" x2="22.3615" y2="237.537" gradientUnits="userSpaceOnUse">
<stop stop-color="#FFE0E0"/>
<stop offset="1" stop-color="#FFF4F4"/>
</linearGradient>
</defs>
</svg>
