<svg width="657" height="690" viewBox="0 0 657 690" fill="none" xmlns="http://www.w3.org/2000/svg">
<path d="M224.018 564.898C192.542 576.051 160.761 581.204 126.861 574.763C89.0767 567.581 56.3036 535.246 37.7857 502.999C30.9053 491.022 25.4277 477.638 26.1435 463.847C27.8089 431.986 57.9081 428.426 83.4577 433.579C97.86 436.477 111.084 443.074 124.159 449.607C145.865 460.462 171.327 465.8 190.788 480.845C197.318 485.908 202.222 491.991 209.81 495.675C221.613 501.409 235.086 504.117 247.21 509.336C257.561 513.814 269.13 521.18 269.146 532.454C269.147 544.015 257.085 551.383 246.487 555.985C238.985 559.264 231.517 562.254 224.018 564.898Z" fill="url(#paint0_linear)"/>
<path d="M108.159 153.938C159.722 77.9493 266.345 47.4385 352.769 76.0085C394.444 89.7924 429.37 118.494 461.584 148.289C489.979 174.549 517.527 202.874 536.918 236.633C550.159 259.676 559.636 287.298 566.328 313.086C576.333 351.698 567.247 401.449 517.334 397.804C505.623 396.95 495.492 392.738 484.539 389.054C475.68 386.068 466.998 387.859 457.8 386.4C434.647 382.734 412.344 374.21 391.253 364.226C348.271 343.86 308.997 316.191 264.793 298.345C228.568 283.738 189.882 276.197 150.823 276.128C134.345 276.101 117.019 277.254 102.279 269.886C65.9483 251.709 82.2858 202.695 95.854 175.123C99.4487 167.779 103.561 160.699 108.159 153.938V153.938Z" fill="url(#paint1_linear)"/>
<path d="M512.445 165.407C520.933 173.096 554.286 194.085 554.928 169.454C555.08 163.318 552.297 157.36 548.509 152.866C544.175 147.708 539.262 145.003 535.878 138.993C531.738 131.738 527.024 124.918 521.799 118.624C511.118 105.522 498.647 93.4173 483.516 88.0238C472.903 84.2454 454.935 85.1956 449.893 98.7974C442.549 118.598 473.953 122.226 483.53 129.442C492.619 136.272 497.767 148.008 504.967 157.335C507.242 160.276 509.746 162.979 512.445 165.407V165.407Z" fill="url(#paint2_linear)"/>
<path d="M355.467 141.324C373.448 151.91 386.936 167.756 403.329 180.518C430.623 201.762 468.033 206.108 499.333 220.881C531.248 235.955 555.347 259.38 566.243 293.143C580.319 336.723 581.657 388.549 569.698 433.352C556.527 482.669 525.598 515.429 480.377 537.275C435.181 559.109 385.114 569.298 335.179 571.4C330.36 571.607 325.55 571.719 320.72 571.75C212.24 572.38 67.8458 534.196 30.9128 417.661C30.5743 416.596 30.2499 415.531 29.9245 414.452C26.1188 401.468 23.8812 388.076 23.2594 374.561C20.9364 326.648 29.3221 273.763 46.1201 228.847C57.4183 198.608 81.7471 173.039 107.383 154.821C143.402 129.226 187.349 122.694 231.09 119.623C263.48 117.351 299.909 116.52 330.538 128.91C339.146 132.419 347.479 136.569 355.467 141.324Z" fill="url(#paint3_linear)"/>
<path d="M431.019 561.412C291.972 601.842 176.1 562.856 135.545 538.309L97.8865 509.43L110.922 487.771L192.033 480.552L326.734 473.332L435.364 494.991L548.339 457.449H556.5C539.119 516.361 466.746 551.304 431.019 561.412Z" fill="#FB4C47"/>
<path d="M419.5 274.001C419.5 274.001 529.5 279.001 556 394.501C577 543.501 478.011 490.805 454.343 483.461C430.681 476.117 346.307 285.403 419.5 274.001Z" fill="#D9423D"/>
<path d="M143.572 506.308H479.565C479.565 506.308 491.329 313.123 448.523 284.855C405.723 256.592 205.556 262.494 161.192 286.635C116.827 310.782 143.572 506.308 143.572 506.308Z" fill="#FB4C47"/>
<path d="M194.961 257.759C194.581 257.759 194.196 257.66 193.846 257.45C192.818 256.849 168.806 242.125 175 204.235C177.166 190.982 179.805 181.431 182.134 172.995C186.326 157.816 189.356 146.846 186.91 124.748C186.781 123.546 187.646 122.466 188.848 122.331C190.045 122.255 191.131 123.067 191.265 124.27C193.805 147.202 190.512 159.1 186.355 174.163C184.055 182.482 181.451 191.922 179.32 204.941C173.605 239.912 195.848 253.55 196.076 253.69C197.115 254.303 197.459 255.646 196.841 256.685C196.438 257.38 195.708 257.759 194.961 257.759Z" fill="#000C3E"/>
<path d="M280.665 24.399C282.37 39.479 271.523 53.0819 256.443 54.7867C241.363 56.4914 227.76 45.6441 226.055 30.5641C224.356 15.4841 235.198 1.88117 250.278 0.176424C265.358 -1.52248 278.961 9.319 280.665 24.399Z" fill="#000C3E"/>
<path d="M191.259 247.548C191.259 247.548 201.709 262.779 235.139 263.649C268.562 264.513 292.33 248.879 318.835 254.197C345.334 259.516 379.85 242.159 385.448 230.512C391.053 218.87 371.88 102.165 349.106 85.55C326.331 68.9346 220.041 68.2515 201.009 94.5933C181.976 120.935 175 236.537 191.259 247.548Z" fill="#000C3E"/>
<path d="M365.258 126.913C370.869 176.608 335.133 221.445 285.439 227.055C235.744 232.666 190.907 196.93 185.297 147.236C179.686 97.5414 215.422 52.7043 265.116 47.0938C314.811 41.4833 359.648 77.2188 365.258 126.913Z" fill="#000C3E"/>
<path d="M323.82 209.744C323.82 209.744 340.161 278.593 335.519 287.222C330.878 295.845 293.199 295.594 283.227 295.121C273.25 294.642 257.965 219.692 263.774 218.81C269.583 217.935 320.358 194.366 323.82 209.744Z" fill="#FFCEB0"/>
<path d="M201.667 144.756C201.667 144.756 221.762 252.884 295.947 246.474C370.139 240.07 346.932 86.952 318.144 76.4082C289.356 65.8587 178.798 85.3465 201.667 144.756Z" fill="#FFCEB0"/>
<path d="M280.625 156.627C280.625 156.627 299.71 187.96 296.435 190.722C293.159 193.483 282.528 194.68 279.311 192.654C276.094 190.622 274.32 153.749 280.625 156.627Z" fill="#EE9B68"/>
<path d="M250.769 78.0603C250.769 78.0603 226.348 94.7808 224.946 119.459C223.545 144.131 235.391 204.982 207.052 206.389C207.052 206.389 134.694 93.3505 250.769 78.0603" fill="#000C3E"/>
<path d="M264.735 76.4821C262.604 78.5546 292.145 74.0184 312.141 91.9532C332.131 109.888 343.877 160.476 346.633 161.03C349.394 161.585 350.101 95.6196 328.657 79.0742C307.208 62.5288 276.867 64.689 264.735 76.4821Z" fill="#000C3E"/>
<path d="M268.1 240.55C268.1 240.55 299.142 252.489 326.535 232.814C326.535 232.814 331.596 250.714 329.921 255.268C328.251 259.827 281.692 269.933 269.303 250.591C269.303 250.591 265.292 240.053 268.1 240.55Z" fill="#EE9B68"/>
<path d="M340.957 166.351C340.957 166.351 343.882 138.083 357.613 145.912C371.35 153.741 364.537 183.854 352.803 188.262C341.062 192.675 336.374 181.39 340.957 166.351Z" fill="#FFCEB0"/>
<path d="M224.411 179.512C224.411 179.512 215.257 152.604 203.615 163.299C191.974 173.995 205.326 201.831 217.75 203.513C230.179 205.194 232.228 193.15 224.411 179.512Z" fill="#FFCEB0"/>
<path d="M305.568 137.22C305.568 137.22 316.526 127.19 326.883 134.779C335.985 141.452 318.465 138.697 312.959 141.306C307.46 143.916 299.683 145.434 305.568 137.22Z" fill="#41294A"/>
<path d="M255.018 146.833C255.018 146.833 241.981 139.705 233.737 149.542C226.486 158.194 242.845 151.34 248.812 152.56C254.778 153.786 262.689 153.407 255.018 146.833Z" fill="#41294A"/>
<path d="M253.727 156.549C252.927 156.549 252.127 156.595 251.315 156.683C239.657 158.008 231.238 168.57 232.552 180.223C233.865 191.782 244.333 200.312 256.079 198.981C261.731 198.338 266.792 195.542 270.336 191.099C273.88 186.65 275.48 181.092 274.843 175.447C273.623 164.675 264.551 156.549 253.727 156.549ZM253.668 202.034C241.361 202.034 231.034 192.798 229.656 180.549C228.155 167.297 237.73 155.288 250.983 153.787C264.469 152.217 276.256 161.972 277.739 175.12C278.469 181.542 276.647 187.865 272.619 192.915C268.591 197.971 262.834 201.152 256.412 201.876C255.49 201.981 254.573 202.034 253.668 202.034Z" fill="#FFFCF6"/>
<path d="M312.927 144.183C312.122 144.183 311.322 144.23 310.504 144.318C304.853 144.96 299.791 147.756 296.253 152.199C292.704 156.648 291.11 162.206 291.741 167.851C293.054 179.417 303.522 187.935 315.268 186.609C320.92 185.967 325.981 183.171 329.525 178.728C333.069 174.279 334.669 168.721 334.032 163.076C332.812 152.31 323.745 144.183 312.927 144.183ZM312.846 189.663C300.545 189.663 290.223 180.427 288.845 168.178C288.115 161.756 289.937 155.433 293.965 150.383C297.993 145.328 303.756 142.146 310.172 141.422C323.576 139.863 335.445 149.595 336.928 162.749C337.658 169.171 335.836 175.493 331.808 180.549C327.78 185.599 322.023 188.781 315.601 189.505C314.679 189.61 313.762 189.663 312.846 189.663Z" fill="#FFFCF6"/>
<path d="M231.078 176.942C230.967 176.942 230.862 176.93 230.751 176.901L221.48 174.77C220.698 174.595 220.207 173.807 220.388 173.025C220.569 172.237 221.369 171.729 222.134 171.933L231.405 174.064C232.187 174.239 232.678 175.027 232.497 175.81C232.345 176.487 231.743 176.942 231.078 176.942Z" fill="#FFFCF6"/>
<path d="M333.607 157.558C333.052 157.558 332.521 157.237 332.276 156.705C331.943 155.975 332.27 155.106 333 154.767L344.635 149.454C345.341 149.116 346.229 149.437 346.567 150.178C346.9 150.908 346.579 151.778 345.844 152.111L334.214 157.429C334.015 157.517 333.811 157.558 333.607 157.558Z" fill="#FFFCF6"/>
<path d="M258.821 71.0077C258.821 71.0077 271.035 129.419 288.076 132.314C305.124 135.21 344.829 127.714 345.781 120.977C346.732 114.245 306.017 67.3589 281.164 62.6066C237.576 54.2755 212.017 126.955 219.186 142.455C226.361 157.961 259.779 138.398 267.047 135.169C274.322 131.935 259.066 82.8826 258.821 71.0077Z" fill="#000C3E"/>
<path d="M276.108 175.477C275.443 175.477 274.841 175.022 274.69 174.351C274.509 173.562 274.993 172.78 275.775 172.599L290.412 169.201C291.229 168.991 291.988 169.511 292.163 170.287C292.344 171.075 291.86 171.858 291.071 172.039L276.441 175.436C276.324 175.466 276.219 175.477 276.108 175.477Z" fill="#FFFCF6"/>
<path d="M240.167 57.2595C239.933 57.2595 239.7 57.2245 239.466 57.1428C230.902 54.2412 225.303 49.2496 222.822 42.2905C217.381 27.012 229.121 7.98537 229.629 7.1797C230.271 6.15219 231.614 5.83692 232.647 6.4908C233.669 7.12716 233.979 8.48161 233.342 9.50329C233.231 9.68428 222.215 27.5608 226.949 40.8309C228.958 46.4531 233.646 50.5515 240.868 52.9977C242.012 53.383 242.631 54.6265 242.24 55.7708C241.936 56.6815 241.078 57.2595 240.167 57.2595Z" fill="#000C3E"/>
<path d="M272.231 57.3677C271.718 57.3677 271.198 57.1867 270.784 56.8189C269.879 56.0191 269.791 54.6354 270.591 53.7305C270.731 53.5729 284.532 37.7456 282.045 23.8799C280.983 17.9951 277.036 13.1902 270.317 9.58809C269.248 9.01595 268.845 7.69069 269.417 6.62814C269.99 5.54808 271.332 5.17444 272.377 5.72323C280.352 9.99677 285.046 15.8466 286.354 23.1151C289.215 39.0709 274.503 55.9198 273.872 56.6321C273.44 57.1166 272.839 57.3677 272.231 57.3677Z" fill="#000C3E"/>
<path d="M377.408 228.327C376.866 228.327 376.323 228.129 375.902 227.72C375.027 226.891 374.991 225.508 375.826 224.626C376.48 223.931 391.887 207.31 383.755 184.448C380.573 175.498 375.733 165.795 370.613 155.514C361.686 137.585 352.45 119.049 349.508 100.25C349.315 99.0528 350.133 97.9318 351.329 97.7509C352.526 97.4881 353.647 98.3755 353.828 99.5724C356.665 117.706 365.75 135.932 374.536 153.558C379.715 163.962 384.607 173.781 387.882 182.976C396.937 208.437 379.726 226.874 378.991 227.65C378.564 228.1 377.986 228.327 377.408 228.327Z" fill="#000C3E"/>
<path d="M369.718 128.503C368.539 128.503 367.564 127.563 367.529 126.378C366.858 102.126 359.373 83.3447 345.28 70.5357C322.587 49.9212 290.15 51.8478 289.841 51.8828C288.498 52.0404 287.593 51.0479 287.511 49.8453C287.424 48.6426 288.34 47.5976 289.549 47.5158C290.944 47.4166 324.157 45.4316 348.228 67.3014C363.238 80.9335 371.201 100.766 371.908 126.249C371.943 127.458 370.991 128.468 369.783 128.503H369.718Z" fill="#000C3E"/>
<path d="M291.525 226.497C288.979 226.497 287.17 226.054 287.018 226.013C285.844 225.715 285.138 224.536 285.43 223.362C285.722 222.2 286.901 221.494 288.08 221.763C288.139 221.786 294.409 223.275 299.167 219.941C300.171 219.252 301.531 219.492 302.215 220.472C302.909 221.465 302.67 222.831 301.683 223.52C298.262 225.919 294.421 226.497 291.525 226.497Z" fill="#EE9B68"/>
<path d="M218.982 196.388C218.877 196.388 218.772 196.383 218.661 196.365C217.464 196.19 216.641 195.075 216.816 193.878C218.801 180.351 208.082 173.182 207.971 173.117C206.961 172.452 206.681 171.097 207.335 170.082C207.995 169.066 209.349 168.786 210.365 169.445C210.902 169.796 223.536 178.243 221.148 194.52C220.99 195.606 220.056 196.388 218.982 196.388Z" fill="#EE9B68"/>
<path d="M348.299 183.338C347.149 183.338 346.186 182.445 346.115 181.283C345.088 164.843 351.849 155.076 352.135 154.667C352.824 153.692 354.19 153.441 355.182 154.141C356.175 154.836 356.408 156.202 355.719 157.189C355.655 157.277 349.566 166.197 350.482 181.015C350.558 182.223 349.642 183.256 348.433 183.332C348.392 183.338 348.346 183.338 348.299 183.338Z" fill="#EE9B68"/>
<path d="M227.747 291.151C227.747 291.151 277.459 350.583 315.799 334.68C354.132 318.777 390.049 275.668 370.777 269.947C351.505 264.225 197.611 267.238 227.747 291.151Z" fill="#FFCEB0"/>
<path d="M265.17 177.85C265.719 181.47 263.226 184.844 259.607 185.393C255.987 185.936 252.612 183.449 252.064 179.829C251.521 176.209 254.008 172.835 257.627 172.286C261.247 171.743 264.622 174.23 265.17 177.85Z" fill="#41294A"/>
<path d="M327.334 165.896C327.883 169.515 325.39 172.89 321.77 173.439C318.15 173.981 314.776 171.494 314.227 167.875C313.684 164.255 316.171 160.881 319.791 160.332C323.411 159.789 326.785 162.276 327.334 165.896Z" fill="#41294A"/>
<path d="M275.988 218.533C275.643 218.533 275.305 218.451 274.983 218.288C273.915 217.733 273.489 216.42 274.044 215.339C274.359 214.732 281.908 200.312 294.068 198.952C300.975 198.181 307.712 201.713 314.175 209.42C314.952 210.354 314.829 211.731 313.907 212.508C312.984 213.302 311.606 213.162 310.824 212.239C305.354 205.718 299.912 202.688 294.565 203.307C284.739 204.393 278.002 217.214 277.932 217.348C277.546 218.101 276.782 218.533 275.988 218.533Z" fill="#EE9B68"/>
<g filter="url(#filter0_d)">
<circle cx="399.879" cy="442.565" r="105.44" fill="white"/>
</g>
<path d="M345.808 395.506C345.808 395.506 389.878 454.348 400.902 459.213C411.93 464.082 425.753 462.986 426.962 468.63C428.171 474.278 403.818 464.726 407.703 473.437C411.588 482.152 426.728 492.099 426.799 500.872C426.873 509.649 402.708 482.035 402.708 482.035C402.708 482.035 425.476 507.299 417.937 507.896C410.395 508.494 390.893 483.794 390.893 483.794C390.893 483.794 412.708 516.196 405.476 513.236C398.248 510.277 331.207 432.752 320.868 424.548C310.53 416.347 345.808 395.506 345.808 395.506Z" fill="#E27B5A"/>
<path d="M474.005 409.789C474.005 409.789 423.74 463.421 412.246 467.045C400.751 470.667 387.133 468.058 385.309 473.534C383.488 479.012 408.742 472.2 403.922 480.435C399.105 488.666 382.965 496.885 381.929 505.6C380.895 514.312 407.945 489.528 407.945 489.528C407.945 489.528 382.538 512.131 389.966 513.554C397.398 514.98 419.496 492.577 419.496 492.577C419.496 492.577 394.251 522.383 401.763 520.237C409.274 518.09 484.426 448.418 495.601 441.403C506.779 434.388 474.005 409.789 474.005 409.789Z" fill="#F8B38A"/>
<path d="M431.214 447.028C431.214 447.028 446.674 476.302 460.886 479.417C475.096 482.532 497.649 459.947 504.347 446.183C511.048 432.422 496.078 391.396 482.639 377.441C472.543 376.208 424.047 420.934 431.214 447.028Z" fill="#F65551"/>
<path d="M332.232 361.935C332.232 361.935 386.135 417.216 383.726 430.227C381.32 443.241 361.904 458.831 346.245 463.936C330.587 469.039 295.019 448.252 295.019 433.262C296.569 404.834 312.591 377.958 332.232 361.935Z" fill="#128E5A"/>
<path d="M151.907 425.959C151.907 425.959 270.768 490.915 292.988 490.649C315.206 490.377 337.565 477.984 343.905 486.517C350.242 495.057 302.087 497.655 315.26 509.294C328.426 520.93 361.422 526.034 368.243 540.688C375.057 555.339 313.433 527.521 313.433 527.521C313.433 527.521 370.927 552.468 358.73 559.229C346.529 565.997 294.949 539.497 294.949 539.497C294.949 539.497 356.293 577.143 341.901 577.705C327.508 578.268 155.833 499.55 132.226 493.699C108.614 487.849 151.907 425.959 151.907 425.959Z" fill="#FFC6A6"/>
<path d="M243.609 422.255C243.609 422.255 245.034 477.414 232.365 498.461C202.244 548.501 120.787 542.4 96.5007 506.501C72.2139 470.602 125.322 289.361 161.192 286.634C197.062 283.908 243.609 370.001 243.609 422.255Z" fill="#D9423D"/>
<path d="M266.835 5.67058C266.162 5.67058 265.432 5.74869 264.641 5.9049C262.712 6.29205 261.462 7.22936 260.712 8.85606C257.367 16.0964 264.42 33.3415 269.46 43.5296C272.574 32.2276 276.306 13.3354 271.032 7.38218C270.017 6.23771 268.635 5.67058 266.835 5.67058ZM270.047 52.0333C269.209 52.0333 268.424 51.5816 268.01 50.8345C266.227 47.6388 250.768 19.2581 256.473 6.89994C257.845 3.92841 260.355 1.99945 263.727 1.32704C269.473 0.182573 272.774 2.3051 274.527 4.28499C283.689 14.6293 273.464 46.7966 272.268 50.4304C271.976 51.31 271.195 51.9348 270.272 52.0231C270.197 52.0299 270.122 52.0333 270.047 52.0333Z" fill="#FFD310"/>
<path d="M298.307 17.1541C298.086 17.1541 297.862 17.1677 297.638 17.2017C289.749 18.2511 280.216 34.9834 275.177 45.5688C285.653 41.1574 302.27 32.7318 304.478 25.0703C304.973 23.3451 304.641 21.8203 303.435 20.2649C301.812 18.1764 300.131 17.1541 298.307 17.1541ZM270.697 52.1809C270.069 52.1809 269.454 51.9296 269.009 51.4609C268.368 50.7885 268.184 49.8037 268.541 48.9479C270.015 45.4194 283.32 14.4 297.02 12.5729C299.645 12.2231 303.527 12.7732 307.12 17.3987C309.232 20.1155 309.871 23.2161 308.964 26.3608C305.194 39.439 274.932 50.7885 271.495 52.0417C271.234 52.1368 270.966 52.1809 270.697 52.1809Z" fill="#FFD310"/>
<path d="M226.867 43.9346C238.207 51.2248 264.128 56.8949 284.378 43.9346" stroke="#FFD310" stroke-width="4.87"/>
<defs>
<filter id="filter0_d" x="214.439" y="261.125" width="370.88" height="370.88" filterUnits="userSpaceOnUse" color-interpolation-filters="sRGB">
<feFlood flood-opacity="0" result="BackgroundImageFix"/>
<feColorMatrix in="SourceAlpha" type="matrix" values="0 0 0 0 0 0 0 0 0 0 0 0 0 0 0 0 0 0 127 0"/>
<feOffset dy="4"/>
<feGaussianBlur stdDeviation="40"/>
<feColorMatrix type="matrix" values="0 0 0 0 0 0 0 0 0 0 0 0 0 0 0 0 0 0 0.22 0"/>
<feBlend mode="normal" in2="BackgroundImageFix" result="effect1_dropShadow"/>
<feBlend mode="normal" in="SourceGraphic" in2="effect1_dropShadow" result="shape"/>
</filter>
<linearGradient id="paint0_linear" x1="23.3494" y1="468.245" x2="56.0066" y2="581.638" gradientUnits="userSpaceOnUse">
<stop stop-color="#FFCCCC"/>
<stop offset="1" stop-color="#FFEEEE"/>
</linearGradient>
<linearGradient id="paint1_linear" x1="633.331" y1="165.007" x2="267.819" y2="80.6052" gradientUnits="userSpaceOnUse">
<stop stop-color="white"/>
<stop offset="1" stop-color="#FFCECE"/>
</linearGradient>
<linearGradient id="paint2_linear" x1="555.794" y1="169.022" x2="430.392" y2="115.461" gradientUnits="userSpaceOnUse">
<stop stop-color="#FFD1D1"/>
<stop offset="1" stop-color="#FFFBFC"/>
</linearGradient>
<linearGradient id="paint3_linear" x1="527.487" y1="522.234" x2="23.3623" y2="230.297" gradientUnits="userSpaceOnUse">
<stop stop-color="#FFCDCD"/>
<stop offset="1" stop-color="#FFF3F3"/>
</linearGradient>
</defs>
</svg>
